<svg xmlns="http://www.w3.org/2000/svg" viewBox="0 0 66.65 66.65"><defs><style>.cls-1{fill:#727171;}.cls-2{fill:#efefef;}.cls-3{fill:#b5b5b6;}.cls-4{fill:#c9caca;}</style></defs><g id="图层_2" data-name="图层 2"><g id="图层_1-2" data-name="图层 1"><polygon class="cls-1" points="33.08 0 0 33.08 0 66.65 66.65 0 33.08 0"/><polygon class="cls-2" points="0 33.08 0 0 33.08 0 0 33.08"/><polygon class="cls-2" points="58.1 0 0 58.1 0 58.76 58.77 0 58.1 0"/><polygon class="cls-2" points="43.05 1.06 29.11 5.08 27.58 19.79 42.29 15 43.05 1.06"/><polygon class="cls-3" points="29.84 5.71 28.49 18.68 41.46 14.46 42.14 2.17 29.84 5.71"/><path class="cls-2" d="M35.38,7.26a3.32,3.32,0,1,0,3.33,3.32A3.32,3.32,0,0,0,35.38,7.26Z"/><path class="cls-4" d="M23.31,9.79h0l-4.58,4.59a3.52,3.52,0,0,1-5,5l-2.1,2.11-3.19,3.2,13.87-3.12,1.89-12.7Z"/><path class="cls-3" d="M28.79,24.39a3.52,3.52,0,0,1,5,0L39.08,19,25.22,22.13l-1.89,12.7,5.45-5.47A3.52,3.52,0,0,1,28.79,24.39Z"/><polygon class="cls-2" points="16.24 27.88 2.29 31.89 0.77 46.6 15.47 41.82 16.24 27.88"/><path class="cls-3" d="M3,32.52l-1.35,13,13-4.21L15.32,29Zm5.54,8.19a3.32,3.32,0,1,1,3.32-3.32A3.32,3.32,0,0,1,8.57,40.71Z"/><path class="cls-3" d="M3.75,3.22,3.48,3.1,2.16,4,0,5.55H0V19.72c2.65.88,5.44-.76,5.91-2.17,0,0,3.72.78,5.28-3.69S7.7,3.62,3.75,3.22Z"/><path class="cls-2" d="M9.31,12.92c-1.58,3.38-4.48,2.86-4.48,2.86-.38.45-2.54,2.36-4.83,1.63V5.6L3.05,3.46C5.88,4.57,10.88,9.55,9.31,12.92Z"/><path class="cls-3" d="M19.35.8a5.48,5.48,0,0,0-.3-.8H5.53L3.76,4.75a9.82,9.82,0,0,0,5.88,6.88c5.12,2.18,8-2.79,7.45-4.8C17.09,6.83,20.6,5.37,19.35.8Z"/><path class="cls-2" d="M17.26,1.1C17.88,4.77,15.2,6,15.2,6,15.13,6.74,14,11,10,10.1S4,4.17,4,4.17L5.57,0H16.84A2.89,2.89,0,0,1,17.26,1.1Z"/><path class="cls-3" d="M2.83,5.37A6,6,0,0,1,0,6.07v6.36c1.46,1.18,3.07.38,3.25-.42,0,0,1.75.57,2.26-1.58C5.9,8.79,4.39,6.47,2.83,5.37Z"/><path class="cls-3" d="M12.72,1.19A3,3,0,0,0,11.8,0H6.07a6.09,6.09,0,0,1-.91,3.19A5.9,5.9,0,0,0,8.07,5.65c2.72,1.13,4-1,3.68-1.87A1.77,1.77,0,0,0,12.72,1.19Z"/><path class="cls-2" d="M0,6.07V0H6.07A6.07,6.07,0,0,1,0,6.07Z"/><path class="cls-1" d="M4.56,0H0V5.27A5.27,5.27,0,0,0,5.27,0Z"/></g></g></svg>