<svg xmlns="http://www.w3.org/2000/svg" viewBox="0 0 52 54.37"><defs><style>.cls-1{fill:#595757;}.cls-2{fill:#efefef;}.cls-3{fill:#9fa0a0;}</style></defs><g id="图层_2" data-name="图层 2"><g id="图层_1-2" data-name="图层 1"><path class="cls-1" d="M0,0H50.61s4.81,13.07-3.44,21.32c0,0,9.8,17.37,0,27.18s-27.52.34-27.52.34S11,56.75,0,53.65Z"/><path class="cls-2" d="M0,0H43.37s4.13,11.2-2.94,18.28c0,0,8.4,14.88,0,23.28s-23.59.3-23.59.3S9.39,48.64,0,46Z"/><path class="cls-3" d="M27.24.07V0H0V31C34.77,32.63,27.64,1.72,27.24.07Z"/><path class="cls-2" d="M19.9,0H0V22.64C26.12,23.89,19.9,0,19.9,0Z"/></g></g></svg>