<svg xmlns="http://www.w3.org/2000/svg" viewBox="0 0 74.08 73.6"><defs><style>.cls-1{fill:#727171;}.cls-2{fill:#efefef;}</style></defs><g id="图层_2" data-name="图层 2"><g id="图层_1-2" data-name="图层 1"><polygon class="cls-1" points="0 0 0 73.6 9.8 73.6 9.8 9.77 74.08 9.77 74.08 0 0 0"/><path class="cls-2" d="M15.29,5a2.78,2.78,0,1,1-2.77-2.77A2.77,2.77,0,0,1,15.29,5Z"/><path class="cls-2" d="M22.52,5a2.77,2.77,0,1,1-2.77-2.77A2.77,2.77,0,0,1,22.52,5Z"/><path class="cls-2" d="M29.76,5A2.78,2.78,0,1,1,27,2.21,2.77,2.77,0,0,1,29.76,5Z"/><path class="cls-2" d="M37.24,5a2.77,2.77,0,1,1-2.77-2.77A2.77,2.77,0,0,1,37.24,5Z"/><path class="cls-2" d="M44.48,5A2.78,2.78,0,1,1,41.7,2.21,2.78,2.78,0,0,1,44.48,5Z"/><path class="cls-2" d="M51.71,5a2.77,2.77,0,1,1-2.77-2.77A2.77,2.77,0,0,1,51.71,5Z"/><path class="cls-2" d="M58.94,5a2.77,2.77,0,1,1-2.77-2.77A2.77,2.77,0,0,1,58.94,5Z"/><path class="cls-2" d="M66.18,5a2.78,2.78,0,1,1-2.77-2.77A2.77,2.77,0,0,1,66.18,5Z"/><path class="cls-2" d="M73.41,5a2.77,2.77,0,1,1-2.77-2.77A2.77,2.77,0,0,1,73.41,5Z"/><path class="cls-2" d="M4.92,67a2.77,2.77,0,1,0,2.77,2.77A2.77,2.77,0,0,0,4.92,67Z"/><path class="cls-2" d="M4.92,59.73A2.78,2.78,0,1,0,7.69,62.5,2.77,2.77,0,0,0,4.92,59.73Z"/><path class="cls-2" d="M4.92,52.5a2.77,2.77,0,1,0,2.77,2.77A2.77,2.77,0,0,0,4.92,52.5Z"/><path class="cls-2" d="M4.92,45a2.78,2.78,0,1,0,2.77,2.78A2.77,2.77,0,0,0,4.92,45Z"/><path class="cls-2" d="M4.92,37.78a2.77,2.77,0,1,0,2.77,2.77A2.77,2.77,0,0,0,4.92,37.78Z"/><path class="cls-2" d="M4.92,30.54a2.78,2.78,0,1,0,2.77,2.78A2.78,2.78,0,0,0,4.92,30.54Z"/><path class="cls-2" d="M4.92,23.31a2.78,2.78,0,1,0,2.77,2.77A2.77,2.77,0,0,0,4.92,23.31Z"/><path class="cls-2" d="M4.92,16.08a2.77,2.77,0,1,0,2.77,2.77A2.77,2.77,0,0,0,4.92,16.08Z"/><path class="cls-2" d="M4.92,8.84a2.78,2.78,0,1,0,2.77,2.78A2.77,2.77,0,0,0,4.92,8.84Z"/><path class="cls-2" d="M7.69,5A2.77,2.77,0,1,1,4.92,2.21,2.77,2.77,0,0,1,7.69,5Z"/></g></g></svg>