<svg xmlns="http://www.w3.org/2000/svg" viewBox="0 0 63.57 63.48"><defs><style>.cls-1{fill:#dcdddd;}.cls-2{fill:#f7f8f8;}.cls-3{fill:#898989;}.cls-4{fill:#3e3a39;}</style></defs><g id="图层_2" data-name="图层 2"><g id="图层_1-2" data-name="图层 1"><path class="cls-1" d="M0,0S14.19,31.77,32.91,16.46c0,0,11.23,2.67,16.58-6.41,0,0,11.77,0,14.08-10Z"/><path class="cls-2" d="M0,0S13.39,27.93,31.05,14.47c0,0,10.61,2.35,15.65-5.64,0,0,11.11,0,13.3-8.83Z"/><path class="cls-1" d="M0,0S12.05,20.2,24.35,10.76c0,0,12.3.91,14.08-10.76Z"/><path class="cls-3" d="M0,0S11.3,18.94,22.83,10.09c0,0,11.54.85,13.21-10.09Z"/><path class="cls-4" d="M21.52,0H0L.08.13c.79,1.26,7.55,11.59,14.46,6.3,0,0,7.35.54,8.41-6.43Z"/><path class="cls-1" d="M0,0S31.81,14.17,16.48,32.86c0,0,2.68,11.21-6.42,16.55,0,0,0,11.75-10.06,14.07Z"/><path class="cls-2" d="M0,0S28,13.37,14.49,31c0,0,2.35,10.59-5.64,15.63,0,0,0,11.09-8.85,13.27Z"/><path class="cls-1" d="M0,0S20.22,12,10.77,24.31c0,0,.91,12.29-10.77,14.07Z"/><path class="cls-3" d="M0,0S19,11.28,10.11,22.8C10.11,22.8,11,34.32,0,36Z"/><path class="cls-4" d="M0,0V22.92c7-1.07,6.43-8.4,6.43-8.4C12.08,7.18,0,0,0,0Z"/></g></g></svg>