<svg xmlns="http://www.w3.org/2000/svg" viewBox="0 0 63.77 64.2"><defs><style>.cls-1{fill:#9fa0a0;}.cls-2{fill:#3e3a39;}.cls-3{fill:#595757;}.cls-4{fill:#dcdddd;}</style></defs><g id="图层_2" data-name="图层 2"><g id="图层_1-2" data-name="图层 1"><path class="cls-1" d="M2.53,36c-.36-.37-.74-.71-1.13-1l-.31-.27S4.78,40.5,2.6,45.15-1.07,54.46,1,57.56c0,0-2.12,4.26,1.46,6.54V64c0-.13-.08-.26-.11-.38-1.13-4.06,1.22-6.12,1.22-6.12-1.45-2.16,1-3.9,1-3.9s-1.88,0,.33-6.49C6.2,43.25,4.31,38.9,2.53,36Z"/><path class="cls-2" d="M4.24,37.94a18.9,18.9,0,0,0-1.71-2C4.31,38.9,6.2,43.25,4.9,47.08c-2.21,6.49-.33,6.49-.33,6.49s-2.48,1.74-1,3.9c0,0-2.35,2.06-1.22,6.12l.11.13c.14.17.3.32.46.48-.1-.61,0-2.6,3.65-6.29S9.21,44.49,4.24,37.94Z"/><path class="cls-2" d="M1.1,33.54a10.19,10.19,0,0,0,6,9.35,6.4,6.4,0,0,0,9.09-7.56C14.68,30.72,10.4,30,8.57,32.65s.7,5.59,2.82,4.7c0,0-.94,3-4.47,1.74S1.1,33.54,1.1,33.54Z"/><path class="cls-1" d="M15.24,34.77c-1.69-4.05-6.06-2.83-6.39-.62s2.45,3.29,3.52,2.22a3.63,3.63,0,0,1-1.59,3.1C9,40.64,5.13,39.89,2,36c0,0,1.51,5.84,7,6.77C14.25,43.63,16.94,38.81,15.24,34.77Z"/><path class="cls-1" d="M57.13,1c-3.1-2-7.75-.56-12.4,1.63S34.24,1.09,34.24,1.09l.27.31c.33.39.67.77,1,1.13C38.47,4.31,42.82,6.2,46.65,4.9c6.49-2.21,6.49-.33,6.49-.33s1.74-2.48,3.9-1c0,0,2.06-2.34,6.12-1.21l.38.11h.13C61.39-1.15,57.13,1,57.13,1Z"/><path class="cls-2" d="M63.3,2.43l-.14-.11C59.1,1.19,57,3.53,57,3.53c-2.16-1.44-3.9,1-3.9,1s0-1.88-6.49.33c-3.83,1.3-8.18-.59-11.11-2.37a21.36,21.36,0,0,0,2,1.71c6.55,5,16.16,6.12,20,2.3s5.67-3.75,6.28-3.65C63.61,2.73,63.46,2.57,63.3,2.43Z"/><path class="cls-2" d="M33.11,1.09a10.21,10.21,0,0,1,9.35,6.05,6.4,6.4,0,0,1-7.56,9.09c-4.61-1.55-5.36-5.83-2.68-7.66s5.59.7,4.7,2.82c0,0,3.06-.94,1.74-4.47S33.11,1.09,33.11,1.09Z"/><path class="cls-1" d="M42.33,9c-.93-5.49-6.77-7-6.77-7,3.9,3.1,4.65,7,3.48,8.75a3.63,3.63,0,0,1-3.1,1.59c1.07-1.07,0-3.85-2.22-3.52s-3.43,4.7.61,6.39S43.2,14.26,42.33,9Z"/><path class="cls-2" d="M6.87,20.8A41.67,41.67,0,0,0,0,0V34.12S7.34,32.75,6.87,20.8Z"/><path class="cls-1" d="M4.1,17.51v0A31.26,31.26,0,0,0,0,5V29.3s4.68-.91,4.39-8.82A25.33,25.33,0,0,0,4.1,17.51Z"/><path class="cls-3" d="M10.87,13.17s-1.74,8-.71,11a2.62,2.62,0,0,0,3.76,1.69s2.59,1,3.48-1.46S16,15.71,10.87,13.17Z"/><path class="cls-2" d="M33.43,0H0A41.67,41.67,0,0,0,20.8,6.87C32.75,7.34,34.13,0,34.13,0Z"/><path class="cls-1" d="M28.49,0H5A31.08,31.08,0,0,0,17.54,4.1h0a27.68,27.68,0,0,0,3,.29C28.39,4.68,29.3,0,29.3,0Z"/><path class="cls-3" d="M24.22,10.16c-3-1-11,.71-11,.71C15.71,16,22,18.3,24.45,17.4s1.46-3.48,1.46-3.48A2.62,2.62,0,0,0,24.22,10.16Z"/><path class="cls-4" d="M21.64,13c-2-5-11.43-2.79-11.43-2.79S8,19.67,13,21.64s7.73-.91,9.68,1C20.73,20.73,23.62,18,21.64,13Z"/><path class="cls-3" d="M18.71,12.15c-.86-1.91-8.49-1.93-8.49-1.93s-.5,7.61,1.75,8.66a1.88,1.88,0,0,0,2.86-1.09s3.21.28,2.73-2.73A2.26,2.26,0,0,0,18.71,12.15Z"/><path class="cls-4" d="M1.2,7S6.53,5.46,11,10.61s.14,11.63-3.59,10.7-3.12-5.42.17-5.42C7.53,15.89,9.66,11.52,1.2,7Z"/><path class="cls-1" d="M10.79,12C8.1,7.35,1.2,7,1.2,7,10.86,10.86,8,17.12,8,17.12c-2.79,0-1.83,3.29.3,3.29S13.48,16.72,10.79,12Z"/><path class="cls-4" d="M7,1.2S5.46,6.53,10.61,11s11.63.14,10.7-3.59-5.42-3.12-5.42.17C15.89,7.53,11.52,9.66,7,1.2Z"/><path class="cls-1" d="M17.12,8S10.86,10.86,7,1.2c0,0,.34,6.9,5,9.59s8.37-.34,8.37-2.46S17.12,5.24,17.12,8Z"/><path class="cls-2" d="M0,0H13.61a3.64,3.64,0,0,1-2,3.17s.36,4.51-4.19,4.2c0,0,.74,3.84-3.84,3.84A3.33,3.33,0,0,1,0,13.61Z"/><path class="cls-4" d="M12.24,0H0V12.24a3,3,0,0,0,3.17-2.16c4.12,0,3.46-3.45,3.46-3.45,4.09.28,3.77-3.78,3.77-3.78A3.27,3.27,0,0,0,12.24,0Z"/><path class="cls-3" d="M5.71,0H0V5.71C6.28,5.71,5.71,0,5.71,0Z"/></g></g></svg>