<svg xmlns="http://www.w3.org/2000/svg" viewBox="0 0 65.93 62.84"><defs><style>.cls-1{fill:#b5b5b6;}.cls-2{fill:#3e3a39;}.cls-3{fill:#f7f8f8;}</style></defs><g id="图层_2" data-name="图层 2"><g id="图层_1-2" data-name="图层 1"><path class="cls-1" d="M14,33.93s12.16,4.84,11.27,9.46-3.91,3.22-3.91,3.22S20,50,16.65,48.88s-5.82-9.74-5-13.29Z"/><path class="cls-2" d="M15.64,34.82c-1-.55-1.64-.89-1.64-.89L12.64,35l-.82.59C11,38.9,13.28,47,16.41,47.94a3.55,3.55,0,0,0,4.37-2.11s2.79,1.29,3.62-3C25,39.61,18.75,36.27,15.64,34.82Z"/><path class="cls-3" d="M14,33.93s9.41,7.13,4.36,8.21c0,0-3.15,4.41-5.51-7.09Z"/><path class="cls-1" d="M37,12.39s13.08.76,13.68,5.43S48,22.1,48,22.1s-.21,3.6-3.76,3.64-8.58-7.42-8.88-11.06Z"/><path class="cls-2" d="M49.69,17.57c-.43-3.26-7.45-4.47-10.85-4.86-1.1-.22-1.84-.32-1.84-.32L36,14l-.52.72c.27,3.36,5,10.3,8.23,10.25a3.53,3.53,0,0,0,3.48-3.38S50.25,21.9,49.69,17.57Z"/><path class="cls-3" d="M37,12.39s11.18,3.8,6.73,6.4c0,0-1.6,5.19-7.46-5Z"/><path class="cls-1" d="M37.53,14.2C35.31,1,15.31,12.66,15.31,12.66,3.14,37.83,17.65,37.8,17.65,37.8c6.68,5,10.83-1,10.83-1s4.92,2.8,9.45-2.46a9.65,9.65,0,0,0,1.73-10.55C42.49,18.47,37.53,14.2,37.53,14.2Z"/><path class="cls-2" d="M34.3,22.61c1.6-3.48-2.4-6.93-2.4-6.93-2.77-9.53-16.4-3-16.4-3-6.72,16.72,3.89,18,3.89,18,5.33,4.13,7.84.21,7.84.21s3.85,2.4,6.71-.92S34.3,22.61,34.3,22.61Z"/><path class="cls-3" d="M28.06,19c3.69-10.52-12.36-6-12.36-6,0,.2,0,.37-.07.56l-.65.23A24.42,24.42,0,0,0,15.43,21c1,7.21,6.49,3.93,6.49,3.93A4.27,4.27,0,0,0,28.06,19Z"/><path class="cls-1" d="M.23,23.56.05,62.84c6.46-.5,8.2-7.65,8.2-7.65,5.37-2.06,5-10.27,5-10.27C20.71,31.35.23,23.56.23,23.56Z"/><path class="cls-2" d="M0,23.71V55.42c4.09-.32,5.53-6.07,5.53-6.07,3.38-1.6,3.09-8.22,3.09-8.22C13.22,30.31,0,23.71,0,23.71Z"/><path class="cls-3" d="M5.29,29.5a19.11,19.11,0,0,0-4-4.58c-.59-.54-1-.86-1-.86v.07l-.11-.07v.45l-.17-.13,0,16.21-.08,5c3.46-.35,3.93-5,3.93-5C8.94,37.44,7.63,33,5.29,29.5Z"/><path class="cls-1" d="M26.65.31S34.5,20.77,48,13.3c0,0,8.22.33,10.27-5.06,0,0,7.14-1.75,7.62-8.22Z"/><path class="cls-2" d="M26.8.08s6.64,13.2,17.45,8.58c0,0,6.62.26,8.2-3.12,0,0,5.75-1.46,6.06-5.54Z"/><path class="cls-3" d="M43.76.12,27.47.15l.13.16h-.45l.08.11h-.08s.32.39.87,1a18.87,18.87,0,0,0,4.6,4c3.5,2.32,7.94,3.6,11-1.41,0,0,4.65-.47,5-3.93Z"/><path class="cls-1" d="M4.09,19.83a18,18,0,0,0,6.28,9.73C15.55,33.65,13.67,42.29,8,41.5S.63,34,5.19,32.71.17,26,4.09,19.83Z"/><path class="cls-2" d="M4.09,19.83s.32,7.07,6,10.83,0,12-3.93,8.17c-5.18-5,3.62-5,1-8.64S3.46,22.66,4.09,19.83Z"/><path class="cls-1" d="M19.7,1.69a18.09,18.09,0,0,1,9.57,6.53c3.95,5.29,12.63,3.62,12-2.05s-7.35-7.57-8.72-3S25.92-2.08,19.7,1.69Z"/><path class="cls-2" d="M19.7,1.69s7.06.5,10.68,6.25,12,.28,8.26-3.72C33.75-1.09,33.53,7.7,30,4.94S22.54,1.14,19.7,1.69Z"/><path class="cls-2" d="M16,13.55,6.6,16.85S7.39,4.6,18.54,5.69Z"/><path class="cls-1" d="M9.12,15.9s-.32-3,4.23-3,5.5,10.37-2.19,10.37S-.46,17.79,3,8.52,20.58-2.63,23.4,3.81,21.52,15.43,17,13.71,13,5.85,18.7,6.64C18.7,6.64,8.8,2.71,9.12,15.9Z"/><path class="cls-3" d="M9.59,15.59s2.67-1.88,4.71-.47.78,8.64-7.07,6S4.72,1.77,14.93,1.62,22.93,11,19.64,12s-5.81-5-2-5.66C17.6,6.32,8,5.85,9.59,15.59Z"/></g></g></svg>