<svg xmlns="http://www.w3.org/2000/svg" viewBox="0 0 62.79 58.79"><defs><style>.cls-1{fill:#898989;}.cls-2{fill:#c9caca;}.cls-3{fill:#595757;}.cls-4{fill:#f7f8f8;}</style></defs><g id="图层_2" data-name="图层 2"><g id="图层_1-2" data-name="图层 1"><path class="cls-1" d="M62.79,0c-9.14-.67-10.34,11.42,0,18.58Z"/><path class="cls-2" d="M59.48,15.23a13.69,13.69,0,0,0,3.31,3.32V2.07C56.42,2,54.77,9.17,59.48,15.23Z"/><path class="cls-1" d="M25.62,38.27s-7.8-18.64-15.19-10.51S13.55,44.13,25.62,38.27Z"/><path class="cls-2" d="M25.75,38.09l.41-.18S19.09,21,12.4,28.39c-5.6,6.15.15,12.38,8.57,11.15a13.77,13.77,0,0,0,4.81-1.38Z"/><path class="cls-3" d="M50,7.5S37.26-2.1,27.32,12.16c0,0-20.62,11.86-2.22,26.08-7.23-3.12-14.44-2.5-18.68,7.87,0,0-6.68,4.86-6.41,12.68h47c.32-.45.64-.88,1-1.35A95.39,95.39,0,0,0,33.94,43.65a124.62,124.62,0,0,0,17.32,6.94s9.62-14.15,11.53-26.25V17.05C61.75,12,58.12,8.25,50,7.5Z"/><path class="cls-4" d="M50.19,9.41S38,.2,28.44,13.88c0,0-19.91,11.47-1.92,25.17-7-3.14-14.09-2.67-18.21,7.43,0,0-6.49,4.72-6.14,12.31h45.7c.18-.18.36-.33.54-.52l0,0L48.6,58l-.33-.26.14-.2s-.63-.77-1.71-2A91,91,0,0,0,35,44.33a96.48,96.48,0,0,0,13.55,5.75c.66.37,1.33.75,2,1.13l0,0,.28.15.16-.4.22.08s.38-.55,1-1.52C56.5,42.77,74.81,11.69,50.19,9.41Z"/><path class="cls-2" d="M42.45,48.19s-5.13-15.14-11.4-9.14c-5.24,5-.65,10.78,6.73,10.25a12.1,12.1,0,0,0,4.32-.91l0-.06Z"/><path class="cls-2" d="M57.88,32.77a11.89,11.89,0,0,0,3,3.15l0-.05a3.4,3.4,0,0,0,.3.23s.68-.83,1.55-2.1V21.57C55.92,20,53.54,26.83,57.88,32.77Z"/><path class="cls-3" d="M54.3,29.24C39.36,32.51,36.91,42,43,47.69c-5.17-2-12.38-2.45-13.61,9.52-.06.54-.1,1.07-.13,1.58h33.5V29.36C60.8,28.59,58.07,28.42,54.3,29.24ZM48.57,56.73l0,0,0-3.17,0,0V52l0,0V50.88c.24.08.47.18.72.26l1.06-.36.06,0,1-.37.06,0,.53-.19A13.93,13.93,0,0,0,48.57,56.73Z"/><path class="cls-1" d="M62.38,42.41A17.2,17.2,0,0,0,44.91,58.79h3.37a13.83,13.83,0,0,1,14-13c.16,0,.31,0,.47,0V42.44C62.65,42.44,62.52,42.42,62.38,42.41Z"/></g></g></svg>