<?xml version="1.0" encoding="utf-8"?>
<!-- Generator: Adobe Illustrator 23.0.0, SVG Export Plug-In . SVG Version: 6.00 Build 0)  -->
<svg version="1.1" id="图层_1" xmlns="http://www.w3.org/2000/svg" xmlns:xlink="http://www.w3.org/1999/xlink" x="0px" y="0px"
	 viewBox="0 0 122.54 114.74" style="enable-background:new 0 0 122.54 114.74;" xml:space="preserve">
<style type="text/css">
	.st0{fill:#898989;}
	.st1{fill:#C9CACA;}
	.st2{fill:#595757;}
	.st3{fill:#F7F8F8;}
</style>
<g>
	<g>
		<path class="st0" d="M25,37.35c0,0-7.62-18.19-14.83-10.26C2.97,35.02,13.22,43.07,25,37.35z"/>
		<path class="st1" d="M25.13,37.18c0.13-0.06,0.26-0.11,0.4-0.18c0,0-6.9-16.48-13.43-9.3c-5.46,6,0.14,12.09,8.36,10.89
			c1.47-0.13,3.06-0.56,4.7-1.35C25.16,37.24,25.15,37.21,25.13,37.18z"/>
		<path class="st0" d="M61.27,0.03c-8.92-0.65-10.09,11.15,0,18.13C71.36,11.18,70.19-0.62,61.27,0.03z"/>
		<path class="st1" d="M61.27,2.02c-6.21-0.03-7.82,6.93-3.23,12.84c0.79,1.15,1.85,2.26,3.23,3.25c1.37-0.99,2.44-2.1,3.23-3.25
			C69.1,8.95,67.48,1.99,61.27,2.02z"/>
		<path class="st0" d="M97.54,37.35c0,0,7.62-18.19,14.83-10.26C119.58,35.02,109.32,43.07,97.54,37.35z"/>
		<path class="st1" d="M97.42,37.18c-0.13-0.06-0.26-0.11-0.4-0.18c0,0,6.9-16.48,13.43-9.3c5.46,6-0.14,12.09-8.36,10.89
			c-1.47-0.13-3.06-0.56-4.7-1.35C97.39,37.24,97.4,37.21,97.42,37.18z"/>
		<path class="st0" d="M25,77.4c0,0-7.62,18.19-14.83,10.26C2.97,79.74,13.22,71.68,25,77.4z"/>
		<path class="st1" d="M25.13,77.58c0.13,0.06,0.26,0.11,0.4,0.18c0,0-6.9,16.48-13.43,9.3c-5.46-6,0.14-12.09,8.36-10.89
			c1.47,0.13,3.06,0.56,4.7,1.35C25.16,77.51,25.15,77.54,25.13,77.58z"/>
		<path class="st0" d="M61.27,96.59c-10.09,6.98-8.92,18.78,0,18.13C70.19,115.37,71.36,103.57,61.27,96.59z"/>
		<path class="st1" d="M64.5,99.89c-0.79-1.15-1.85-2.26-3.23-3.25c-1.37,0.99-2.44,2.1-3.23,3.25c-4.6,5.91-2.98,12.87,3.23,12.84
			C67.48,112.77,69.1,105.8,64.5,99.89z"/>
		<path class="st0" d="M97.54,77.4c0,0,7.62,18.19,14.83,10.26C119.58,79.74,109.32,71.68,97.54,77.4z"/>
		<path class="st1" d="M97.42,77.58c-0.13,0.06-0.26,0.11-0.4,0.18c0,0,6.9,16.48,13.43,9.3c5.46-6-0.14-12.09-8.36-10.89
			c-1.47,0.13-3.06,0.56-4.7,1.35C97.39,77.51,97.4,77.54,97.42,77.58z"/>
	</g>
	<path class="st2" d="M116.28,45c-4.14-10.13-11.17-10.73-18.23-7.69c17.96-13.87-2.16-25.45-2.16-25.45
		C86.18-2.05,73.77,7.32,73.77,7.32c-7.94,0.74-11.49,4.42-12.5,9.32c-1.01-4.9-4.56-8.58-12.5-9.32c0,0-12.41-9.37-22.12,4.55
		c0,0-20.12,11.58-2.16,25.45C17.44,34.27,10.4,34.88,6.27,45c0,0-6.52,4.74-6.26,12.37c-0.26,7.63,6.26,12.37,6.26,12.37
		c4.14,10.13,11.17,10.73,18.23,7.69c-17.96,13.87,2.16,25.45,2.16,25.45c9.71,13.92,22.12,4.55,22.12,4.55
		c7.94-0.74,11.49-4.42,12.5-9.32c1.01,4.9,4.56,8.58,12.5,9.32c0,0,12.41,9.37,22.12-4.55c0,0,20.12-11.58,2.16-25.45
		c7.06,3.05,14.09,2.44,18.23-7.69c0,0,6.52-4.74,6.26-12.37C122.8,49.74,116.28,45,116.28,45z M72.52,65.38
		c0,0-9.39,13.81-11.25,25.62c-1.86-11.82-11.25-25.62-11.25-25.62c-6.9,2.26-12.46,4.53-16.9,6.77
		c7.66-5.9,13.74-13.45,13.74-13.45c-0.32-0.45-0.63-0.88-0.94-1.32c0.31-0.44,0.62-0.87,0.94-1.32c0,0-6.08-7.55-13.74-13.45
		c4.45,2.24,10,4.51,16.9,6.77c0,0,9.39-13.81,11.25-25.62c1.86,11.82,11.25,25.62,11.25,25.62c6.9-2.26,12.46-4.53,16.9-6.77
		c-7.66,5.9-13.74,13.45-13.74,13.45c0.32,0.45,0.63,0.88,0.94,1.32c-0.31,0.44-0.62,0.87-0.94,1.32c0,0,6.08,7.55,13.74,13.45
		C84.98,69.91,79.42,67.64,72.52,65.38z"/>
	<g>
		<path class="st3" d="M49.36,49.98c0,0,0.01-0.02,0.02-0.04c0.09,0.05,0.18,0.1,0.27,0.15c0,0,0.06-0.14,0.15-0.38
			c0.07,0.02,0.15,0.05,0.22,0.07c0,0,0.37-0.54,0.96-1.48c4.15-6.54,22.02-36.87-2.01-39.11c0,0-11.91-8.98-21.22,4.36
			c0,0-19.44,11.19-1.88,24.57c-6.87-3.06-13.75-2.6-17.77,7.25c0,0-6.33,4.61-5.99,12.02c-0.34,7.41,5.99,12.02,5.99,12.02
			c4.03,9.85,10.91,10.31,17.77,7.25c-17.56,13.37,1.88,24.57,1.88,24.57c9.31,13.35,21.22,4.36,21.22,4.36
			c24.03-2.23,6.16-32.56,2.01-39.11c-0.59-0.95-0.96-1.48-0.96-1.48c-0.07,0.02-0.15,0.05-0.22,0.07c-0.1-0.24-0.15-0.38-0.15-0.38
			c-0.09,0.05-0.18,0.1-0.27,0.15c-0.01-0.02-0.02-0.04-0.02-0.04c-0.69,0.37-1.35,0.74-1.99,1.1c-5.39,1.88-9.74,3.76-13.23,5.61
			c5.01-3.91,9.28-8.51,11.43-10.96c1.06-1.2,1.67-1.95,1.67-1.95c-0.05-0.06-0.09-0.13-0.14-0.19c0.21-0.16,0.32-0.26,0.32-0.26
			c-0.08-0.08-0.15-0.14-0.22-0.22c0.01-0.01,0.03-0.03,0.03-0.03c-0.18-0.18-0.35-0.33-0.52-0.51c0.18-0.17,0.34-0.33,0.52-0.51
			c0,0-0.02-0.02-0.03-0.03c0.07-0.07,0.15-0.14,0.22-0.22c0,0-0.12-0.1-0.32-0.26c0.05-0.06,0.09-0.13,0.14-0.19
			c0,0-0.61-0.76-1.67-1.95c-2.14-2.45-6.42-7.05-11.43-10.96c3.49,1.85,7.84,3.73,13.23,5.61C48.01,49.23,48.67,49.6,49.36,49.98z"
			/>
		<path class="st3" d="M114.44,45.36c-4.03-9.85-10.91-10.31-17.77-7.25c17.56-13.37-1.88-24.57-1.88-24.57
			C85.48,0.2,73.57,9.18,73.57,9.18c-24.03,2.23-6.16,32.56-2.01,39.11c0.59,0.95,0.96,1.48,0.96,1.48
			c0.07-0.02,0.15-0.05,0.22-0.07c0.1,0.24,0.15,0.38,0.15,0.38c0.09-0.05,0.18-0.1,0.27-0.15c0.01,0.02,0.02,0.04,0.02,0.04
			c0.69-0.37,1.35-0.74,1.99-1.1c5.39-1.88,9.74-3.76,13.23-5.61c-5.01,3.91-9.28,8.51-11.43,10.96c-1.06,1.2-1.67,1.95-1.67,1.95
			c0.05,0.06,0.09,0.13,0.14,0.19c-0.21,0.16-0.32,0.26-0.32,0.26c0.08,0.08,0.15,0.14,0.22,0.22c-0.01,0.01-0.03,0.03-0.03,0.03
			c0.18,0.18,0.35,0.33,0.52,0.51c-0.18,0.17-0.34,0.33-0.52,0.51c0,0,0.02,0.02,0.03,0.03c-0.07,0.07-0.15,0.14-0.22,0.22
			c0,0,0.12,0.1,0.32,0.26c-0.05,0.06-0.09,0.13-0.14,0.19c0,0,0.61,0.76,1.67,1.95c2.14,2.45,6.42,7.05,11.43,10.96
			c-3.49-1.85-7.84-3.73-13.23-5.61c-0.64-0.36-1.3-0.73-1.99-1.1c0,0-0.01,0.02-0.02,0.04c-0.09-0.05-0.18-0.1-0.27-0.15
			c0,0-0.06,0.14-0.15,0.38c-0.07-0.02-0.15-0.05-0.22-0.07c0,0-0.37,0.54-0.96,1.48c-4.15,6.54-22.02,36.87,2.01,39.11
			c0,0,11.91,8.98,21.22-4.36c0,0,19.44-11.19,1.88-24.57c6.87,3.06,13.75,2.6,17.77-7.25c0,0,6.33-4.61,5.99-12.02
			C120.77,49.97,114.44,45.36,114.44,45.36z"/>
	</g>
	<g>
		<path class="st1" d="M41.43,47.03c0,0-5-14.77-11.13-8.92c-5.11,4.89-0.64,10.51,6.57,10c1.3-0.02,2.73-0.29,4.22-0.89
			c0,0-0.01-0.02-0.02-0.06C41.19,47.12,41.31,47.08,41.43,47.03z"/>
		<path class="st1" d="M81.12,47.03c0,0,5-14.77,11.13-8.92c5.11,4.89,0.64,10.51-6.57,10c-1.3-0.02-2.73-0.29-4.22-0.89
			c0,0,0.01-0.02,0.02-0.06C81.36,47.12,81.24,47.08,81.12,47.03z"/>
		<path class="st1" d="M61.27,21.05c-6.7-1.58-9.02,5.14-4.79,10.94c0.7,1.08,1.67,2.13,2.95,3.07c0,0,0.01-0.02,0.04-0.05
			c0.1,0.08,0.19,0.15,0.29,0.23c0,0,0.67-0.81,1.51-2.05c0.85,1.24,1.51,2.05,1.51,2.05c0.1-0.07,0.19-0.15,0.29-0.23
			c0.02,0.03,0.04,0.05,0.04,0.05c1.27-0.94,2.25-1.99,2.95-3.07C70.3,26.19,67.97,19.47,61.27,21.05z"/>
	</g>
	<g>
		<path class="st1" d="M41.43,67.72c0,0-5,14.77-11.13,8.92c-5.11-4.89-0.64-10.51,6.57-10c1.3,0.02,2.73,0.29,4.22,0.89
			c0,0-0.01,0.02-0.02,0.06C41.19,67.63,41.31,67.67,41.43,67.72z"/>
		<path class="st1" d="M81.12,67.72c0,0,5,14.77,11.13,8.92c5.11-4.89,0.64-10.51-6.57-10c-1.3,0.02-2.73,0.29-4.22,0.89
			c0,0,0.01,0.02,0.02,0.06C81.36,67.63,81.24,67.67,81.12,67.72z"/>
		<path class="st1" d="M61.27,93.7c-6.7,1.58-9.02-5.14-4.79-10.94c0.7-1.08,1.67-2.13,2.95-3.07c0,0,0.01,0.02,0.04,0.05
			c0.1-0.08,0.19-0.15,0.29-0.23c0,0,0.67,0.81,1.51,2.05c0.85-1.24,1.51-2.05,1.51-2.05c0.1,0.07,0.19,0.15,0.29,0.23
			c0.02-0.03,0.04-0.05,0.04-0.05c1.27,0.94,2.25,1.99,2.95,3.07C70.3,88.56,67.97,95.29,61.27,93.7z"/>
	</g>
	<path class="st2" d="M93.84,55.83c-1.2-11.68-8.24-11.23-13.28-9.29c5.98-5.6,3.58-14.81-11-18c-3.68-0.81-6.34-0.64-8.28,0.11
		c-1.94-0.76-4.6-0.92-8.28-0.11c-14.58,3.19-16.98,12.4-11,18c-5.04-1.93-12.08-2.39-13.28,9.29c-0.05,0.53-0.09,1.04-0.12,1.55
		c0.03,0.5,0.07,1.02,0.12,1.55c1.2,11.68,8.24,11.23,13.28,9.29c-5.98,5.6-3.58,14.81,11,18c3.68,0.81,6.34,0.64,8.28-0.11
		c1.94,0.76,4.6,0.92,8.28,0.11c14.58-3.19,16.98-12.4,11-18c5.04,1.93,12.08,2.39,13.28-9.29c0.05-0.53,0.09-1.04,0.12-1.55
		C93.93,56.87,93.89,56.36,93.84,55.83z M72.43,49.24c0.02-0.01,0.04-0.01,0.05-0.02l1.03,0.35c0.02-0.01,0.04-0.01,0.05-0.02
		l1.03,0.35c0.24-0.08,0.48-0.17,0.71-0.25l-0.01,1.1c-0.02,0.02-0.04,0.03-0.04,0.03l-0.02,1.44c-0.02,0.02-0.04,0.03-0.04,0.03
		l-0.03,3.09c-0.02,0.01-0.02,0.01-0.03,0.02c-0.51-2.4-1.65-4.56-3.24-6.3L72.43,49.24z M47.95,49.9l1.03-0.35
		c0.02,0.01,0.04,0.01,0.05,0.02l1.03-0.35c0.02,0.01,0.04,0.01,0.05,0.02l0.52-0.18c-1.59,1.74-2.73,3.9-3.24,6.3
		c-0.01-0.01-0.01-0.01-0.03-0.02l-0.03-3.09c0,0-0.01-0.01-0.04-0.03l-0.02-1.44c0,0-0.01-0.01-0.04-0.03l-0.01-1.1
		C47.48,49.74,47.71,49.82,47.95,49.9z M50.12,65.51c-0.02,0.01-0.04,0.01-0.05,0.02l-1.03-0.35c-0.02,0.01-0.04,0.01-0.05,0.02
		l-1.03-0.35c-0.24,0.08-0.48,0.17-0.71,0.25l0.01-1.1c0.02-0.02,0.04-0.03,0.04-0.03l0.02-1.44c0.02-0.02,0.04-0.03,0.04-0.03
		l0.03-3.09c0.02-0.01,0.02-0.01,0.03-0.02c0.51,2.4,1.65,4.56,3.24,6.3L50.12,65.51z M74.6,64.85l-1.03,0.35
		c-0.02-0.01-0.04-0.01-0.05-0.02l-1.03,0.35c-0.02-0.01-0.04-0.01-0.05-0.02l-0.52,0.18c1.59-1.74,2.73-3.9,3.24-6.3
		c0.01,0.01,0.01,0.01,0.03,0.02l0.03,3.09c0,0,0.01,0.01,0.04,0.03l0.02,1.44c0,0,0.01,0.01,0.04,0.03l0.01,1.1
		C75.07,65.02,74.84,64.93,74.6,64.85z"/>
	<path class="st0" d="M61.67,41.39c-0.13,0-0.26,0.02-0.4,0.03c-0.13,0-0.26-0.02-0.4-0.03c-9.1-0.16-16.61,6.96-17.05,15.98
		c0.44,9.03,7.95,16.14,17.05,15.98c0.13,0,0.26-0.02,0.4-0.03c0.13,0,0.26,0.02,0.4,0.03c9.1,0.16,16.61-6.96,17.05-15.98
		C78.28,48.35,70.77,41.24,61.67,41.39z M61.73,70.07c-0.15,0-0.3-0.02-0.45-0.03c-0.15,0.01-0.3,0.03-0.45,0.03
		c-7.27,0.13-13.28-5.51-13.7-12.7c0.43-7.19,6.44-12.82,13.7-12.7c0.15,0,0.3,0.02,0.45,0.03c0.15-0.01,0.3-0.03,0.45-0.03
		C69,44.55,75,50.19,75.43,57.38C75,64.56,69,70.2,61.73,70.07z"/>
</g>
</svg>
