<svg xmlns="http://www.w3.org/2000/svg" viewBox="0 0 58.42 62.3"><defs><style>.cls-1{fill:#c9caca;}.cls-2{fill:#f7f8f8;}.cls-3{fill:#9fa0a0;}.cls-4{fill:#595757;}</style></defs><g id="图层_2" data-name="图层 2"><g id="图层_1-2" data-name="图层 1"><path class="cls-1" d="M58.42,0c-6.4.1-11,5-11,5C31.09,3.4,30.19,16.43,30.19,16.43l.11.18c-11.43-2.45-16.61,9-16.61,9-15,4.71-10.1,19.3-10.1,19.3C-1.95,53.22,0,59,2.34,62.3H57l-.5-.86,1.91-3.09Z"/><path class="cls-2" d="M5,62.3H56.22L30.42,18.15c-11.27-2.61-14.52,9-14.52,9C1.29,31.75,6.09,45.92,6.09,45.92.37,54.47,2.66,59.68,5,62.3Z"/><path class="cls-3" d="M41.54,56.35S21,60.29,14.16,56s.72-8.66.72-8.66-3.88-8,5-9.65c0,0,.34-6,6.08-4.59S41.54,56.35,41.54,56.35Z"/><path class="cls-1" d="M41.56,56.31a20.61,20.61,0,0,0-1.31-3.19c-3.63-7.63-11-14.23-14.76-13.07-4.22,1.31-2.74,6.05-2.74,6.05-3,.95-5.6,5.83.72,9.14s18.07,1.11,18.07,1.11v0Z"/><path class="cls-4" d="M52.11,59.12s-9.3-5.62-16.8-1.8a8.56,8.56,0,0,0-4.54,5H53.25Z"/><path class="cls-2" d="M53.06,62.3l-1-2.89s-5.89-3.55-10.63-1.13a5.15,5.15,0,0,0-3.06,4Z"/><path class="cls-2" d="M58.42,2.81C52.2,2.9,47.69,7.69,47.69,7.69c-15.82-1.58-15.61,10-15.61,10L56.42,60.29l2-3.25Z"/><path class="cls-3" d="M58.42,12a8.57,8.57,0,0,0-4.65,3.12s-7.42-4.57-8,3.44S58.36,42.92,58.36,42.92l.06-.08Z"/><path class="cls-1" d="M50.86,26.45c0,7.13,7.5,16.47,7.5,16.47l0,0,0,0h0V21.38C56.07,19.28,50.81,19.46,50.86,26.45Z"/><path class="cls-4" d="M57.11,37.9c-5.5-6.39-13-2.23-12.8,2.23,0,0-9.21-.5-8.42,8.4S50.82,60.28,50.82,60.28l7.6-5V39.81A11.37,11.37,0,0,0,57.11,37.9Z"/><path class="cls-2" d="M58.42,45.19a7.28,7.28,0,0,0-.8-1.16c-3.47-4-8.22-1.4-8.1,1.41,0,0-5.82-.31-5.32,5.31s9.44,7.44,9.44,7.44L58.42,55Z"/><path class="cls-4" d="M49.2,62.3h9.22V53.08A9.22,9.22,0,0,0,49.2,62.3Z"/><path class="cls-2" d="M57.87,54.52a7.78,7.78,0,0,0-7.23,7.78h7.78V54.51Z"/></g></g></svg>