<?xml version="1.0" encoding="utf-8"?>
<!-- Generator: Adobe Illustrator 23.0.0, SVG Export Plug-In . SVG Version: 6.00 Build 0)  -->
<svg version="1.1" id="图层_1" xmlns="http://www.w3.org/2000/svg" xmlns:xlink="http://www.w3.org/1999/xlink" x="0px" y="0px"
	 viewBox="0 0 107.61 114.74" style="enable-background:new 0 0 107.61 114.74;" xml:space="preserve">
<style type="text/css">
	.st0{fill:#C9CACA;}
	.st1{fill:#F7F8F8;}
	.st2{fill:#9FA0A0;}
	.st3{fill:#595757;}
</style>
<g>
	<path class="st0" d="M105.45,57.37c2.17-3.02,3.95-8.36-1.15-15.98c0,0,4.54-13.44-9.3-17.77c0,0-4.77-10.57-15.29-8.32l0.1-0.17
		c0,0-0.83-12-15.83-10.5c0,0-4.28-4.54-10.17-4.63c-5.89,0.09-10.17,4.63-10.17,4.63c-15-1.5-15.83,10.5-15.83,10.5l0.1,0.17
		c-10.52-2.26-15.29,8.32-15.29,8.32c-13.85,4.33-9.3,17.77-9.3,17.77c-5.1,7.62-3.32,12.96-1.15,15.98
		c-2.17,3.02-3.95,8.36,1.15,15.98c0,0-4.54,13.44,9.3,17.77c0,0,4.77,10.57,15.29,8.32l-0.1,0.17c0,0,0.83,12,15.83,10.5
		c0,0,4.28,4.54,10.17,4.63c5.89-0.09,10.17-4.63,10.17-4.63c15,1.5,15.83-10.5,15.83-10.5l-0.1-0.17C90.22,101.7,95,91.13,95,91.13
		c13.85-4.33,9.3-17.77,9.3-17.77C109.4,65.73,107.62,60.39,105.45,57.37z M53.8,61.01l-1.76-2.84l0.46-0.79l-0.46-0.79l1.76-2.84
		l1.76,2.84l-0.46,0.79l0.46,0.79L53.8,61.01z"/>
	<path class="st1" d="M63.69,7.08c0,0-4.16-4.41-9.88-4.5c-5.73,0.08-9.88,4.5-9.88,4.5c-14.57-1.46-14.38,9.18-14.38,9.18
		l22.42,39.25l1.84-3l1.84,3l22.42-39.25C78.07,16.27,78.26,5.63,63.69,7.08z"/>
	<path class="st1" d="M103.02,57.37c2.14-2.41,4.24-7.21-1.02-15.08c0,0,4.42-13.05-9.04-17.26c0,0-3-10.72-13.37-8.32L55.83,57.37
		l23.77,40.66c10.37,2.4,13.37-8.32,13.37-8.32C106.42,85.5,102,72.45,102,72.45C107.26,64.58,105.16,59.78,103.02,57.37z"/>
	<path class="st1" d="M28.01,16.71c-10.37-2.4-13.37,8.32-13.37,8.32C1.19,29.24,5.6,42.29,5.6,42.29
		c-5.26,7.87-3.16,12.67-1.02,15.08c-2.14,2.41-4.24,7.21,1.02,15.08c0,0-4.42,13.05,9.04,17.26c0,0,3,10.72,13.37,8.32l23.77-40.66
		L28.01,16.71z"/>
	<path class="st1" d="M63.69,107.66c0,0-4.16,4.41-9.88,4.5c-5.73-0.08-9.88-4.5-9.88-4.5c-14.57,1.46-14.38-9.18-14.38-9.18
		l22.42-39.25l1.84,3l1.84-3l22.42,39.25C78.07,98.47,78.26,109.11,63.69,107.66z"/>
	<path class="st2" d="M38.25,51.9c0,0-18.94,3.62-25.21-0.31c-6.27-3.93,0.66-7.98,0.66-7.98s-3.58-7.34,4.65-8.89
		c0,0,0.31-5.56,5.6-4.23C29.24,31.83,38.25,51.9,38.25,51.9z"/>
	<path class="st0" d="M38.27,51.86c-0.31-0.99-0.72-1.98-1.2-2.94c-3.35-7.02-10.18-13.11-13.59-12.04
		c-3.89,1.21-2.53,5.57-2.53,5.57c-2.8,0.88-5.15,5.37,0.67,8.42c5.82,3.05,16.63,1.03,16.63,1.03c0-0.01-0.01-0.02-0.01-0.03
		C38.25,51.87,38.27,51.86,38.27,51.86z"/>
	<path class="st2" d="M69.35,51.9c0,0,18.94,3.62,25.21-0.31c6.27-3.93-0.66-7.98-0.66-7.98s3.58-7.34-4.65-8.89
		c0,0-0.31-5.56-5.6-4.23C78.36,31.83,69.35,51.9,69.35,51.9z"/>
	<path class="st0" d="M69.33,51.86c0.31-0.99,0.72-1.98,1.2-2.94c3.35-7.02,10.18-13.11,13.59-12.04c3.89,1.21,2.53,5.57,2.53,5.57
		c2.8,0.88,5.15,5.37-0.67,8.42c-5.82,3.05-16.63,1.03-16.63,1.03c0-0.01,0.01-0.02,0.01-0.03C69.36,51.87,69.33,51.86,69.33,51.86z
		"/>
	<path class="st2" d="M65.44,17.13c-0.52-7.38-7.36-3.17-7.36-3.17s-1.75-2.4-4.28-2.87c-2.53,0.47-4.28,2.87-4.28,2.87
		s-6.83-4.21-7.36,3.17c-0.52,7.38,11.58,22.39,11.58,22.39s0.02-0.03,0.06-0.07c0.03,0.04,0.06,0.07,0.06,0.07
		S65.96,24.51,65.44,17.13z"/>
	<path class="st0" d="M53.8,19.68c-2.17-1.93-7.02-1.76-6.97,4.67c0.05,6.57,6.91,15.16,6.91,15.16c0.01-0.01,0.02-0.02,0.03-0.03
		c0,0.01,0.02,0.03,0.02,0.03c0-0.01,0.01-0.01,0.01-0.01c0,0,0.01,0.01,0.01,0.01c0,0,0.02-0.02,0.02-0.03
		c0.01,0.01,0.02,0.02,0.03,0.03c0,0,6.86-8.6,6.91-15.16C60.82,17.92,55.97,17.76,53.8,19.68z"/>
	<path class="st2" d="M38.25,62.85c0,0-18.94-3.62-25.21,0.31c-6.27,3.93,0.66,7.98,0.66,7.98s-3.58,7.34,4.65,8.89
		c0,0,0.31,5.56,5.6,4.23C29.24,82.91,38.25,62.85,38.25,62.85z"/>
	<path class="st0" d="M38.27,62.88c-0.31,0.99-0.72,1.98-1.2,2.94c-3.35,7.02-10.18,13.11-13.59,12.04
		c-3.89-1.21-2.53-5.57-2.53-5.57c-2.8-0.88-5.15-5.37,0.67-8.42c5.82-3.05,16.63-1.03,16.63-1.03c0,0.01-0.01,0.02-0.01,0.03
		C38.25,62.88,38.27,62.88,38.27,62.88z"/>
	<path class="st2" d="M69.35,62.85c0,0,18.94-3.62,25.21,0.31c6.27,3.93-0.66,7.98-0.66,7.98s3.58,7.34-4.65,8.89
		c0,0-0.31,5.56-5.6,4.23C78.36,82.91,69.35,62.85,69.35,62.85z"/>
	<path class="st0" d="M69.33,62.88c0.31,0.99,0.72,1.98,1.2,2.94c3.35,7.02,10.18,13.11,13.59,12.04c3.89-1.21,2.53-5.57,2.53-5.57
		c2.8-0.88,5.15-5.37-0.67-8.42c-5.82-3.05-16.63-1.03-16.63-1.03c0,0.01,0.01,0.02,0.01,0.03C69.36,62.88,69.33,62.88,69.33,62.88z
		"/>
	<path class="st2" d="M65.44,97.61c-0.52,7.38-7.36,3.17-7.36,3.17s-1.75,2.4-4.28,2.87c-2.53-0.47-4.28-2.87-4.28-2.87
		s-6.83,4.21-7.36-3.17c-0.52-7.38,11.58-22.39,11.58-22.39s0.02,0.03,0.06,0.07c0.03-0.04,0.06-0.07,0.06-0.07
		S65.96,90.23,65.44,97.61z"/>
	<path class="st0" d="M53.8,95.06c-2.17,1.93-7.02,1.76-6.97-4.67c0.05-6.57,6.91-15.16,6.91-15.16c0.01,0.01,0.02,0.02,0.03,0.03
		c0-0.01,0.02-0.03,0.02-0.03c0,0.01,0.01,0.01,0.01,0.01c0,0,0.01-0.01,0.01-0.01c0,0,0.02,0.02,0.02,0.03
		c0.01-0.01,0.02-0.02,0.03-0.03c0,0,6.86,8.6,6.91,15.16C60.82,96.82,55.97,96.98,53.8,95.06z"/>
	<path class="st3" d="M75.09,52.79c-1.63-0.83-3.35-1.17-5.02-1.21c2.31-1.65,4.22-3.9,4.49-6.89c0.73-8.19-7.75-7.74-7.75-7.74
		c0.18-4.1-6.73-7.93-11.79-2.05c-0.48,0.55-0.86,1.15-1.21,1.76c-0.34-0.61-0.73-1.21-1.21-1.76c-5.07-5.88-11.98-2.05-11.79,2.05
		c0,0-8.48-0.45-7.75,7.74c0.27,2.99,2.17,5.24,4.49,6.89c-1.68,0.05-3.4,0.38-5.02,1.21c-2.34,1.2-3.63,2.87-4.18,4.58
		c0.55,1.71,1.84,3.39,4.18,4.58c1.63,0.83,3.35,1.17,5.02,1.21c-2.31,1.65-4.22,3.9-4.49,6.89c-0.73,8.19,7.75,7.74,7.75,7.74
		c-0.18,4.1,6.73,7.93,11.79,2.05c0.48-0.55,0.86-1.15,1.21-1.76c0.34,0.61,0.73,1.21,1.21,1.76c5.07,5.88,11.98,2.05,11.79-2.05
		c0,0,8.48,0.45,7.75-7.74c-0.27-2.99-2.17-5.24-4.49-6.89c1.68-0.05,3.4-0.38,5.02-1.21c2.34-1.2,3.63-2.87,4.18-4.58
		C78.72,55.66,77.44,53.99,75.09,52.79z M53.8,63.86l-5.73-3.79l0.97-2.7l-0.97-2.7l5.73-3.79l5.73,3.79l-0.97,2.7l0.97,2.7
		L53.8,63.86z"/>
	<g>
		<path class="st1" d="M62,41.85c0.12-2.6-4.26-5.01-7.46-1.3c-0.29,0.34-0.53,0.7-0.74,1.07c-0.21-0.37-0.45-0.73-0.74-1.07
			c-3.2-3.71-7.58-1.29-7.46,1.3c0,0-5.36-0.29-4.9,4.89c0.46,5.18,8.69,6.85,8.69,6.85l4.4-2.92l4.4,2.92c0,0,8.23-1.67,8.69-6.85
			C67.36,41.56,62,41.85,62,41.85z"/>
		<path class="st1" d="M62,72.89c0.12,2.6-4.26,5.01-7.46,1.3c-0.29-0.34-0.53-0.7-0.74-1.07c-0.21,0.37-0.45,0.73-0.74,1.07
			c-3.2,3.71-7.58,1.29-7.46-1.3c0,0-5.36,0.29-4.9-4.89c0.46-5.18,8.69-6.85,8.69-6.85l4.4,2.92l4.4-2.92c0,0,8.23,1.67,8.69,6.85
			C67.36,73.18,62,72.89,62,72.89z"/>
		<path class="st1" d="M47.9,54.71c0,0-5.42-3.28-9.79-1.05c-1.85,0.94-2.67,2.35-2.82,3.7c0.15,1.35,0.97,2.76,2.82,3.7
			c4.37,2.23,9.79-1.05,9.79-1.05l0.96-2.66L47.9,54.71z"/>
		<path class="st1" d="M69.49,53.67c-4.37-2.23-9.79,1.05-9.79,1.05l-0.96,2.66l0.96,2.66c0,0,5.42,3.28,9.79,1.05
			c1.85-0.94,2.67-2.35,2.82-3.7C72.16,56.02,71.34,54.61,69.49,53.67z"/>
	</g>
	<ellipse class="st3" cx="53.8" cy="57.37" rx="8.49" ry="8.49"/>
	<path class="st1" d="M54.31,50.21c-0.17-0.01-0.34-0.01-0.51-0.01c-0.17,0-0.34,0-0.51,0.01c-3.79,0.27-6.67,3.42-6.66,7.16
		c0,3.74,2.88,6.9,6.66,7.16c0.17,0.01,0.34,0.01,0.51,0.01c0.17,0,0.34,0,0.51-0.01c3.79-0.27,6.67-3.42,6.66-7.16
		C60.98,53.63,58.1,50.47,54.31,50.21z"/>
</g>
</svg>
