<svg xmlns="http://www.w3.org/2000/svg" viewBox="0 0 57.92 57.37"><defs><style>.cls-1{fill:#efefef;}.cls-2{fill:#595757;}.cls-3{fill:#b5b5b6;}.cls-4{fill:#898989;}</style></defs><g id="图层_2" data-name="图层 2"><g id="图层_1-2" data-name="图层 1"><path class="cls-1" d="M57.92,57.37V0h0A57.92,57.92,0,0,0,0,57.37Z"/><path class="cls-2" d="M57.92,57.37V5.46h0A52.47,52.47,0,0,0,5.46,57.37Z"/><path class="cls-3" d="M40.15,42.94,50.6,38.49l7.32-3.13V26.71L53.58,16.54C48.81,5.35,38.89,11,38.89,11s-11,3.23-6.2,14.42Z"/><path class="cls-1" d="M40.92,42.61l9.68-4.12,7.32-3.13v-6.5l-4.56-10.7c-4.42-10.36-13.6-5.11-13.6-5.11S29.6,16.05,34,26.41Z"/><path class="cls-3" d="M16.27,53.58l9.45,3.79h9.53l2.91-7.23L42.4,39.6,24.75,32.51C13.46,28,10.46,39,10.46,39S5,49,16.27,53.58Z"/><path class="cls-1" d="M17.89,53.32l10.08,4h7.28l2.91-7.23,3.92-9.76L25.74,33.81c-10.45-4.2-13.23,6-13.23,6S7.44,49.12,17.89,53.32Z"/><path class="cls-3" d="M36.63,57.37V46.81h-19c-10.2,0-10.91,8-10.88,10.56Z"/><path class="cls-1" d="M36.63,57.37V47.65H19c-9.38,0-10.1,7.28-10.07,9.72Z"/><path class="cls-3" d="M57.92,36.66V6.79h-.06S46.51,5.47,46.51,17.64v19H57.92Z"/><path class="cls-1" d="M57.92,36.66V9h-.06s-10.51-1.23-10.51,10V36.66H57.92Z"/><path class="cls-3" d="M21.42,22.74s-9,7.09-.37,15.69L34.5,51.88l8-8,8-8L37.11,22.37C28.51,13.77,21.42,22.74,21.42,22.74Z"/><path class="cls-1" d="M23,24.3s-8.3,6.57-.34,14.53L35.1,51.29l7.43-7.44L50,36.42,37.51,24C29.55,16,23,24.3,23,24.3Z"/><path class="cls-2" d="M57.92,57.37V31h0A26.94,26.94,0,0,0,31,57.37Z"/><path class="cls-4" d="M57.92,57.37V39.71h0A18.21,18.21,0,0,0,39.73,57.37Z"/><path class="cls-2" d="M57.92,57.37V43.92h0a14,14,0,0,0-14,13.45Z"/><path class="cls-1" d="M57.38,33.56a1,1,0,1,1-1-1A1,1,0,0,1,57.38,33.56Z"/><path class="cls-1" d="M57.53,37.7a1,1,0,0,1-2,0,1,1,0,1,1,2,0Z"/><path class="cls-1" d="M54.67,38a1,1,0,1,1-1-1A1,1,0,0,1,54.67,38Z"/><path class="cls-1" d="M51.94,38.71a1,1,0,1,1-1-1A1,1,0,0,1,51.94,38.71Z"/><path class="cls-1" d="M49,39.71a1,1,0,1,1-1-1A1,1,0,0,1,49,39.71Z"/><path class="cls-1" d="M46.51,41.34a1,1,0,1,1-2,0,1,1,0,0,1,2,0Z"/><path class="cls-1" d="M44.61,43.12a1,1,0,1,1-2,0,1,1,0,0,1,2,0Z"/><path class="cls-1" d="M42.78,45.41a1,1,0,1,1-1-1A1,1,0,0,1,42.78,45.41Z"/><path class="cls-1" d="M41.15,47.82a1,1,0,1,1-1-1A1,1,0,0,1,41.15,47.82Z"/><path class="cls-1" d="M39.91,50.55a1,1,0,1,1-1-1A1,1,0,0,1,39.91,50.55Z"/><path class="cls-1" d="M39.11,53.22a1,1,0,1,1-1-1A1,1,0,0,1,39.11,53.22Z"/><path class="cls-1" d="M38.9,55.85a1,1,0,1,1-1-1A1,1,0,0,1,38.9,55.85Z"/><path class="cls-1" d="M54.67,33.81a1,1,0,1,1-1-1A1,1,0,0,1,54.67,33.81Z"/><path class="cls-1" d="M52.15,34.38a1,1,0,1,1-1-1A1,1,0,0,1,52.15,34.38Z"/><path class="cls-1" d="M49.73,35.26a1,1,0,1,1-1-1A1,1,0,0,1,49.73,35.26Z"/><path class="cls-1" d="M47.35,36.42a1,1,0,1,1-1-1A1,1,0,0,1,47.35,36.42Z"/><path class="cls-1" d="M45.11,37.7a1,1,0,0,1-2,0,1,1,0,1,1,2,0Z"/><path class="cls-1" d="M43,39.31a1,1,0,1,1-1-1A1,1,0,0,1,43,39.31Z"/><path class="cls-1" d="M41.15,41.09a1,1,0,1,1-1-1A1,1,0,0,1,41.15,41.09Z"/><path class="cls-1" d="M39.48,43.12a1,1,0,1,1-1-1A1,1,0,0,1,39.48,43.12Z"/><path class="cls-1" d="M38,45.27a1,1,0,1,1-1-1A1,1,0,0,1,38,45.27Z"/><path class="cls-1" d="M36.76,47.53a1,1,0,1,1-1-1A1,1,0,0,1,36.76,47.53Z"/><path class="cls-1" d="M35.6,50.11a1,1,0,1,1-1-1A1,1,0,0,1,35.6,50.11Z"/><path class="cls-1" d="M34.8,52.9a1,1,0,0,1-2,0,1,1,0,1,1,2,0Z"/><path class="cls-1" d="M34.58,55.73a1,1,0,1,1-2,0,1,1,0,0,1,2,0Z"/></g></g></svg>