<?xml version="1.0" encoding="utf-8"?>
<!-- Generator: Adobe Illustrator 23.0.0, SVG Export Plug-In . SVG Version: 6.00 Build 0)  -->
<svg version="1.1" id="图层_1" xmlns="http://www.w3.org/2000/svg" xmlns:xlink="http://www.w3.org/1999/xlink" x="0px" y="0px"
	 viewBox="0 0 115.84 114.74" style="enable-background:new 0 0 115.84 114.74;" xml:space="preserve">
<style type="text/css">
	.st0{fill:#EFEFEF;}
	.st1{fill:#595757;}
	.st2{fill:#B5B5B6;}
	.st3{fill:#898989;}
</style>
<g>
	<path class="st0" d="M57.92,0L57.92,0L57.92,0C26.11,0,0.3,25.63,0,57.37c0.3,31.74,26.11,57.37,57.92,57.37h0h0
		c31.81,0,57.62-25.63,57.92-57.37C115.54,25.63,89.73,0,57.92,0z"/>
	<path class="st1" d="M57.92,5.46L57.92,5.46L57.92,5.46c-28.79,0-52.16,23.19-52.46,51.91c0.3,28.72,23.67,51.91,52.46,51.91h0h0
		c28.79,0,52.16-23.19,52.46-51.91C110.08,28.65,86.71,5.46,57.92,5.46z"/>
	<path class="st2" d="M40.15,42.94l10.45-4.45l7.32-3.12v-8.65l-4.34-10.18c-4.77-11.19-14.7-5.52-14.7-5.52s-10.97,3.23-6.19,14.42
		L40.15,42.94z"/>
	<path class="st0" d="M40.92,42.61l9.68-4.13l7.32-3.12v-6.51l-4.56-10.7c-4.42-10.36-13.61-5.11-13.61-5.11s-10.16,2.99-5.74,13.36
		L40.92,42.61z"/>
	<path class="st2" d="M16.27,53.57l9.45,3.8h9.53l2.91-7.24L42.4,39.6l-17.65-7.1c-11.29-4.54-14.29,6.49-14.29,6.49
		S4.99,49.03,16.27,53.57z"/>
	<path class="st0" d="M17.89,53.32l10.08,4.05h7.28l2.91-7.24l3.92-9.76l-16.34-6.57c-10.45-4.2-13.24,6.01-13.24,6.01
		S7.44,49.12,17.89,53.32z"/>
	<path class="st2" d="M21.42,22.74c0,0-8.97,7.09-0.37,15.69L34.5,51.88l8.03-8.03l8.03-8.03L37.11,22.37
		C28.51,13.77,21.42,22.74,21.42,22.74z"/>
	<path class="st0" d="M22.98,24.3c0,0-8.3,6.57-0.34,14.53L35.1,51.29l7.44-7.43l7.44-7.44L37.51,23.96
		C29.55,15.99,22.98,24.3,22.98,24.3z"/>
	<path class="st2" d="M75.69,42.94l-10.45-4.45l-7.32-3.12v-8.65l4.34-10.18c4.77-11.19,14.7-5.52,14.7-5.52s10.97,3.23,6.19,14.42
		L75.69,42.94z"/>
	<path class="st0" d="M74.92,42.61l-9.68-4.13l-7.32-3.12v-6.51l4.56-10.7c4.42-10.36,13.61-5.11,13.61-5.11s10.16,2.99,5.74,13.36
		L74.92,42.61z"/>
	<path class="st2" d="M99.57,53.57l-9.45,3.8h-9.53l-2.91-7.24L73.45,39.6l17.65-7.1c11.29-4.54,14.29,6.49,14.29,6.49
		S110.85,49.03,99.57,53.57z"/>
	<path class="st0" d="M97.95,53.32l-10.08,4.05h-7.28l-2.91-7.24l-3.92-9.76l16.34-6.57c10.45-4.2,13.24,6.01,13.24,6.01
		S108.4,49.12,97.95,53.32z"/>
	<path class="st2" d="M57.98,6.8c0,0-0.02,0-0.06-0.01c-0.04,0-0.06,0.01-0.06,0.01S46.51,5.47,46.51,17.64v19.03h11.36h0.06h0.06
		h11.36V17.64C69.34,5.47,57.98,6.8,57.98,6.8z"/>
	<path class="st0" d="M57.98,9.01c0,0-0.02,0-0.06-0.01c-0.03,0-0.06,0.01-0.06,0.01S47.35,7.78,47.35,19.04v17.62h10.52h0.06h0.06
		H68.5V19.04C68.5,7.78,57.98,9.01,57.98,9.01z"/>
	<path class="st2" d="M94.42,22.74c0,0,8.97,7.09,0.37,15.69L81.34,51.88l-8.03-8.03l-8.03-8.03l13.45-13.45
		C87.33,13.77,94.42,22.74,94.42,22.74z"/>
	<path class="st0" d="M92.87,24.3c0,0,8.3,6.57,0.34,14.53L80.75,51.29l-7.44-7.43l-7.44-7.44l12.46-12.46
		C86.3,15.99,92.87,24.3,92.87,24.3z"/>
	<path class="st2" d="M40.15,71.8l10.45,4.45l7.32,3.12v8.65L53.58,98.2c-4.77,11.19-14.7,5.52-14.7,5.52s-10.97-3.23-6.19-14.42
		L40.15,71.8z"/>
	<path class="st0" d="M40.92,72.13l9.68,4.13l7.32,3.12v6.51l-4.56,10.7c-4.42,10.36-13.61,5.11-13.61,5.11S29.6,98.7,34.01,88.33
		L40.92,72.13z"/>
	<path class="st2" d="M16.27,61.17l9.45-3.8h9.53l2.91,7.24l4.24,10.53l-17.65,7.1c-11.29,4.54-14.29-6.49-14.29-6.49
		S4.99,65.71,16.27,61.17z"/>
	<path class="st0" d="M17.89,61.42l10.08-4.05h7.28l2.91,7.24l3.92,9.76l-16.34,6.57c-10.45,4.2-13.24-6.01-13.24-6.01
		S7.44,65.63,17.89,61.42z"/>
	<path class="st2" d="M21.42,92c0,0-8.97-7.09-0.37-15.69L34.5,62.86l8.03,8.03l8.03,8.03L37.11,92.37
		C28.51,100.97,21.42,92,21.42,92z"/>
	<path class="st0" d="M22.98,90.44c0,0-8.3-6.57-0.34-14.53L35.1,63.46l7.44,7.43l7.44,7.44L37.51,90.78
		C29.55,98.75,22.98,90.44,22.98,90.44z"/>
	<path class="st2" d="M75.69,71.8l-10.45,4.45l-7.32,3.12v8.65l4.34,10.18c4.77,11.19,14.7,5.52,14.7,5.52s10.97-3.23,6.19-14.42
		L75.69,71.8z"/>
	<path class="st0" d="M74.92,72.13l-9.68,4.13l-7.32,3.12v6.51l4.56,10.7c4.42,10.36,13.61,5.11,13.61,5.11s10.16-2.99,5.74-13.35
		L74.92,72.13z"/>
	<path class="st2" d="M99.57,61.17l-9.45-3.8h-9.53l-2.91,7.24l-4.24,10.53l17.65,7.1c11.29,4.54,14.29-6.49,14.29-6.49
		S110.85,65.71,99.57,61.17z"/>
	<path class="st0" d="M97.95,61.42l-10.08-4.05h-7.28l-2.91,7.24l-3.92,9.76l16.34,6.57c10.45,4.2,13.24-6.01,13.24-6.01
		S108.4,65.63,97.95,61.42z"/>
	<path class="st2" d="M57.98,107.94c0,0-0.02,0-0.06,0.01c-0.04,0-0.06-0.01-0.06-0.01s-11.36,1.33-11.36-10.84V78.08h11.36h0.06
		h0.06h11.36V97.1C69.34,109.27,57.98,107.94,57.98,107.94z"/>
	<path class="st0" d="M57.98,105.73c0,0-0.02,0-0.06,0.01c-0.03,0-0.06-0.01-0.06-0.01s-10.52,1.23-10.52-10.04V78.08h10.52h0.06
		h0.06H68.5V95.7C68.5,106.96,57.98,105.73,57.98,105.73z"/>
	<path class="st2" d="M94.42,92c0,0,8.97-7.09,0.37-15.69L81.34,62.86l-8.03,8.03l-8.03,8.03l13.45,13.45
		C87.33,100.97,94.42,92,94.42,92z"/>
	<path class="st0" d="M92.87,90.44c0,0,8.3-6.57,0.34-14.53L80.75,63.46l-7.44,7.43l-7.44,7.44l12.46,12.46
		C86.3,98.75,92.87,90.44,92.87,90.44z"/>
	<path class="st2" d="M17.6,46.81C7.4,46.81,6.69,54.8,6.72,57.37C6.69,59.94,7.4,67.93,17.6,67.93h19.02V57.37V46.81H17.6z"/>
	<path class="st0" d="M19.01,47.64c-9.38,0-10.1,7.28-10.08,9.73c-0.02,2.44,0.7,9.73,10.08,9.73h17.61v-9.73v-9.73H19.01z"/>
	<path class="st2" d="M98.24,46.81H79.22v10.56v10.56h19.02c10.21,0,10.92-7.99,10.88-10.56C109.16,54.8,108.45,46.81,98.24,46.81z"
		/>
	<path class="st0" d="M96.83,47.64H79.22v9.73v9.73h17.61c9.38,0,10.1-7.28,10.08-9.73C106.93,54.93,106.21,47.64,96.83,47.64z"/>
	<path class="st1" d="M57.92,30.99L57.92,30.99L57.92,30.99c-14.7,0-26.64,11.76-26.94,26.38c0.3,14.62,12.24,26.38,26.93,26.38h0h0
		c14.69,0,26.63-11.76,26.93-26.38C84.56,42.75,72.62,30.99,57.92,30.99z"/>
	<path class="st3" d="M57.92,39.71L57.92,39.71L57.92,39.71c-9.88,0-17.89,7.86-18.19,17.66c0.3,9.8,8.32,17.66,18.19,17.66h0h0
		c9.87,0,17.89-7.86,18.19-17.66C75.81,47.57,67.8,39.71,57.92,39.71z M57.92,70.82L57.92,70.82L57.92,70.82
		c-7.55,0-13.69-5.98-13.99-13.45c0.3-7.48,6.44-13.45,13.99-13.45h0h0c7.55,0,13.69,5.98,13.99,13.45
		C71.61,64.85,65.47,70.82,57.92,70.82z"/>
	<g>
		<g>
			<g>
				<path class="st0" d="M57.38,33.56c0,0.56-0.46,1.02-1.02,1.02c-0.56,0-1.02-0.46-1.02-1.02c0-0.56,0.46-1.02,1.02-1.02
					C56.93,32.54,57.38,33,57.38,33.56z"/>
				<path class="st0" d="M57.53,37.69c0,0.56-0.45,1.02-1.02,1.02c-0.56,0-1.02-0.46-1.02-1.02c0-0.56,0.46-1.02,1.02-1.02
					C57.08,36.68,57.53,37.13,57.53,37.69z"/>
				<path class="st0" d="M54.67,38.03c0,0.56-0.45,1.02-1.02,1.02c-0.56,0-1.02-0.46-1.02-1.02c0-0.56,0.46-1.02,1.02-1.02
					C54.21,37.01,54.67,37.46,54.67,38.03z"/>
				<path class="st0" d="M51.94,38.71c0,0.56-0.45,1.02-1.02,1.02c-0.56,0-1.02-0.46-1.02-1.02c0-0.56,0.46-1.02,1.02-1.02
					C51.49,37.69,51.94,38.15,51.94,38.71z"/>
				<path class="st0" d="M48.96,39.71c0,0.56-0.45,1.02-1.02,1.02c-0.56,0-1.02-0.46-1.02-1.02s0.46-1.02,1.02-1.02
					C48.51,38.7,48.96,39.15,48.96,39.71z"/>
				<path class="st0" d="M46.51,41.34c0,0.56-0.45,1.02-1.02,1.02c-0.56,0-1.02-0.46-1.02-1.02c0-0.56,0.46-1.02,1.02-1.02
					C46.05,40.33,46.51,40.78,46.51,41.34z"/>
				<path class="st0" d="M44.61,43.12c0,0.56-0.45,1.02-1.02,1.02c-0.56,0-1.02-0.46-1.02-1.02c0-0.56,0.46-1.02,1.02-1.02
					C44.15,42.11,44.61,42.56,44.61,43.12z"/>
				<path class="st0" d="M42.78,45.41c0,0.56-0.45,1.02-1.02,1.02c-0.56,0-1.02-0.46-1.02-1.02c0-0.56,0.46-1.02,1.02-1.02
					C42.32,44.39,42.78,44.84,42.78,45.41z"/>
				<path class="st0" d="M41.15,47.82c0,0.56-0.45,1.02-1.02,1.02c-0.56,0-1.02-0.46-1.02-1.02c0-0.56,0.45-1.02,1.02-1.02
					C40.69,46.81,41.15,47.26,41.15,47.82z"/>
				<path class="st0" d="M39.91,50.54c0,0.56-0.45,1.02-1.02,1.02c-0.56,0-1.02-0.46-1.02-1.02c0-0.56,0.46-1.02,1.02-1.02
					C39.46,49.53,39.91,49.98,39.91,50.54z"/>
				<path class="st0" d="M39.11,53.22c0,0.56-0.46,1.02-1.02,1.02c-0.56,0-1.02-0.45-1.02-1.02c0-0.56,0.45-1.02,1.02-1.02
					C38.66,52.21,39.11,52.66,39.11,53.22z"/>
				<path class="st0" d="M38.9,55.85c0,0.56-0.46,1.02-1.02,1.02c-0.56,0-1.02-0.45-1.02-1.02c0-0.56,0.46-1.02,1.02-1.02
					C38.44,54.83,38.9,55.28,38.9,55.85z"/>
				<path class="st0" d="M54.67,33.81c0,0.56-0.45,1.02-1.02,1.02c-0.56,0-1.02-0.46-1.02-1.02c0-0.56,0.46-1.02,1.02-1.02
					C54.21,32.79,54.67,33.25,54.67,33.81z"/>
				<path class="st0" d="M52.15,34.38c0,0.56-0.46,1.02-1.02,1.02c-0.56,0-1.02-0.46-1.02-1.02c0-0.56,0.45-1.02,1.02-1.02
					C51.69,33.36,52.15,33.82,52.15,34.38z"/>
				<path class="st0" d="M49.73,35.26c0,0.56-0.45,1.02-1.02,1.02c-0.56,0-1.02-0.46-1.02-1.02c0-0.56,0.46-1.02,1.02-1.02
					C49.27,34.24,49.73,34.7,49.73,35.26z"/>
				<path class="st0" d="M47.35,36.41c0,0.56-0.45,1.02-1.02,1.02c-0.56,0-1.02-0.46-1.02-1.02c0-0.56,0.46-1.02,1.02-1.02
					C46.89,35.4,47.35,35.85,47.35,36.41z"/>
				<path class="st0" d="M45.11,37.69c0,0.56-0.45,1.02-1.02,1.02c-0.56,0-1.02-0.46-1.02-1.02c0-0.56,0.46-1.02,1.02-1.02
					C44.66,36.68,45.11,37.13,45.11,37.69z"/>
				<path class="st0" d="M43.01,39.31c0,0.56-0.45,1.02-1.02,1.02c-0.56,0-1.02-0.46-1.02-1.02s0.46-1.02,1.02-1.02
					C42.56,38.29,43.01,38.75,43.01,39.31z"/>
				<path class="st0" d="M41.15,41.09c0,0.56-0.45,1.02-1.02,1.02c-0.56,0-1.02-0.45-1.02-1.02c0-0.56,0.45-1.02,1.02-1.02
					C40.69,40.07,41.15,40.53,41.15,41.09z"/>
				<path class="st0" d="M39.48,43.12c0,0.56-0.45,1.02-1.02,1.02c-0.56,0-1.02-0.46-1.02-1.02c0-0.56,0.46-1.02,1.02-1.02
					C39.03,42.11,39.48,42.56,39.48,43.12z"/>
				<path class="st0" d="M38,45.27c0,0.56-0.45,1.02-1.02,1.02c-0.56,0-1.02-0.46-1.02-1.02c0-0.56,0.46-1.02,1.02-1.02
					C37.55,44.26,38,44.71,38,45.27z"/>
				<path class="st0" d="M36.76,47.52c0,0.56-0.46,1.02-1.02,1.02c-0.56,0-1.02-0.46-1.02-1.02c0-0.56,0.46-1.02,1.02-1.02
					C36.31,46.51,36.76,46.96,36.76,47.52z"/>
				<path class="st0" d="M35.6,50.11c0,0.56-0.45,1.02-1.02,1.02c-0.56,0-1.02-0.46-1.02-1.02c0-0.56,0.46-1.02,1.02-1.02
					C35.14,49.1,35.6,49.55,35.6,50.11z"/>
				<path class="st0" d="M34.8,52.9c0,0.56-0.46,1.02-1.02,1.02c-0.56,0-1.02-0.46-1.02-1.02s0.46-1.02,1.02-1.02
					C34.35,51.88,34.8,52.33,34.8,52.9z"/>
				<path class="st0" d="M34.58,55.73c0,0.56-0.46,1.02-1.02,1.02c-0.56,0-1.02-0.46-1.02-1.02c0-0.56,0.46-1.02,1.02-1.02
					C34.12,54.72,34.58,55.17,34.58,55.73z"/>
			</g>
			<g>
				<path class="st0" d="M58.46,33.56c0,0.56,0.46,1.02,1.02,1.02c0.56,0,1.02-0.46,1.02-1.02c0-0.56-0.46-1.02-1.02-1.02
					C58.92,32.54,58.46,33,58.46,33.56z"/>
				<path class="st0" d="M58.31,37.69c0,0.56,0.45,1.02,1.02,1.02c0.56,0,1.02-0.46,1.02-1.02c0-0.56-0.46-1.02-1.02-1.02
					C58.77,36.68,58.31,37.13,58.31,37.69z"/>
				<path class="st0" d="M61.18,38.03c0,0.56,0.45,1.02,1.02,1.02c0.56,0,1.02-0.46,1.02-1.02c0-0.56-0.46-1.02-1.02-1.02
					C61.63,37.01,61.18,37.46,61.18,38.03z"/>
				<path class="st0" d="M63.9,38.71c0,0.56,0.45,1.02,1.02,1.02c0.56,0,1.02-0.46,1.02-1.02c0-0.56-0.46-1.02-1.02-1.02
					C64.36,37.69,63.9,38.15,63.9,38.71z"/>
				<path class="st0" d="M66.88,39.71c0,0.56,0.45,1.02,1.02,1.02c0.56,0,1.02-0.46,1.02-1.02s-0.46-1.02-1.02-1.02
					C67.34,38.7,66.88,39.15,66.88,39.71z"/>
				<path class="st0" d="M69.34,41.34c0,0.56,0.45,1.02,1.02,1.02c0.56,0,1.02-0.46,1.02-1.02c0-0.56-0.46-1.02-1.02-1.02
					C69.79,40.33,69.34,40.78,69.34,41.34z"/>
				<path class="st0" d="M71.23,43.12c0,0.56,0.45,1.02,1.02,1.02c0.56,0,1.02-0.46,1.02-1.02c0-0.56-0.46-1.02-1.02-1.02
					C71.69,42.11,71.23,42.56,71.23,43.12z"/>
				<path class="st0" d="M73.07,45.41c0,0.56,0.45,1.02,1.02,1.02c0.56,0,1.02-0.46,1.02-1.02c0-0.56-0.46-1.02-1.02-1.02
					C73.52,44.39,73.07,44.84,73.07,45.41z"/>
				<path class="st0" d="M74.7,47.82c0,0.56,0.45,1.02,1.02,1.02c0.56,0,1.02-0.46,1.02-1.02c0-0.56-0.45-1.02-1.02-1.02
					C75.15,46.81,74.7,47.26,74.7,47.82z"/>
				<path class="st0" d="M75.93,50.54c0,0.56,0.45,1.02,1.02,1.02c0.56,0,1.02-0.46,1.02-1.02c0-0.56-0.46-1.02-1.02-1.02
					C76.39,49.53,75.93,49.98,75.93,50.54z"/>
				<path class="st0" d="M76.73,53.22c0,0.56,0.46,1.02,1.02,1.02c0.56,0,1.02-0.45,1.02-1.02c0-0.56-0.45-1.02-1.02-1.02
					C77.19,52.21,76.73,52.66,76.73,53.22z"/>
				<path class="st0" d="M76.95,55.85c0,0.56,0.46,1.02,1.02,1.02c0.56,0,1.02-0.45,1.02-1.02c0-0.56-0.46-1.02-1.02-1.02
					C77.4,54.83,76.95,55.28,76.95,55.85z"/>
				<path class="st0" d="M61.18,33.81c0,0.56,0.45,1.02,1.02,1.02c0.56,0,1.02-0.46,1.02-1.02c0-0.56-0.46-1.02-1.02-1.02
					C61.63,32.79,61.18,33.25,61.18,33.81z"/>
				<path class="st0" d="M63.7,34.38c0,0.56,0.46,1.02,1.02,1.02c0.56,0,1.02-0.46,1.02-1.02c0-0.56-0.45-1.02-1.02-1.02
					C64.15,33.36,63.7,33.82,63.7,34.38z"/>
				<path class="st0" d="M66.12,35.26c0,0.56,0.45,1.02,1.02,1.02c0.56,0,1.02-0.46,1.02-1.02c0-0.56-0.46-1.02-1.02-1.02
					C66.57,34.24,66.12,34.7,66.12,35.26z"/>
				<path class="st0" d="M68.5,36.41c0,0.56,0.45,1.02,1.02,1.02c0.56,0,1.02-0.46,1.02-1.02c0-0.56-0.46-1.02-1.02-1.02
					C68.95,35.4,68.5,35.85,68.5,36.41z"/>
				<path class="st0" d="M70.73,37.69c0,0.56,0.45,1.02,1.02,1.02c0.56,0,1.02-0.46,1.02-1.02c0-0.56-0.46-1.02-1.02-1.02
					C71.19,36.68,70.73,37.13,70.73,37.69z"/>
				<path class="st0" d="M72.83,39.31c0,0.56,0.45,1.02,1.02,1.02c0.56,0,1.02-0.46,1.02-1.02s-0.46-1.02-1.02-1.02
					C73.29,38.29,72.83,38.75,72.83,39.31z"/>
				<path class="st0" d="M74.7,41.09c0,0.56,0.45,1.02,1.02,1.02c0.56,0,1.02-0.45,1.02-1.02c0-0.56-0.45-1.02-1.02-1.02
					C75.15,40.07,74.7,40.53,74.7,41.09z"/>
				<path class="st0" d="M76.36,43.12c0,0.56,0.45,1.02,1.02,1.02c0.56,0,1.02-0.46,1.02-1.02c0-0.56-0.46-1.02-1.02-1.02
					C76.82,42.11,76.36,42.56,76.36,43.12z"/>
				<path class="st0" d="M77.84,45.27c0,0.56,0.45,1.02,1.02,1.02c0.56,0,1.02-0.46,1.02-1.02c0-0.56-0.46-1.02-1.02-1.02
					C78.29,44.26,77.84,44.71,77.84,45.27z"/>
				<path class="st0" d="M79.08,47.52c0,0.56,0.46,1.02,1.02,1.02c0.56,0,1.02-0.46,1.02-1.02c0-0.56-0.46-1.02-1.02-1.02
					C79.54,46.51,79.08,46.96,79.08,47.52z"/>
				<path class="st0" d="M80.25,50.11c0,0.56,0.46,1.02,1.02,1.02c0.56,0,1.02-0.46,1.02-1.02c0-0.56-0.46-1.02-1.02-1.02
					C80.7,49.1,80.25,49.55,80.25,50.11z"/>
				<path class="st0" d="M81.04,52.9c0,0.56,0.46,1.02,1.02,1.02c0.56,0,1.02-0.46,1.02-1.02s-0.46-1.02-1.02-1.02
					C81.5,51.88,81.04,52.33,81.04,52.9z"/>
				<path class="st0" d="M81.26,55.73c0,0.56,0.46,1.02,1.02,1.02c0.56,0,1.02-0.46,1.02-1.02c0-0.56-0.46-1.02-1.02-1.02
					C81.72,54.72,81.26,55.17,81.26,55.73z"/>
			</g>
		</g>
		<g>
			<g>
				<path class="st0" d="M57.38,81.18c0-0.56-0.46-1.02-1.02-1.02c-0.56,0-1.02,0.46-1.02,1.02c0,0.56,0.46,1.02,1.02,1.02
					C56.93,82.2,57.38,81.74,57.38,81.18z"/>
				<path class="st0" d="M57.53,77.05c0-0.56-0.45-1.02-1.02-1.02c-0.56,0-1.02,0.46-1.02,1.02c0,0.56,0.46,1.02,1.02,1.02
					C57.08,78.06,57.53,77.61,57.53,77.05z"/>
				<path class="st0" d="M54.67,76.71c0-0.56-0.45-1.02-1.02-1.02c-0.56,0-1.02,0.46-1.02,1.02c0,0.56,0.46,1.02,1.02,1.02
					C54.21,77.73,54.67,77.28,54.67,76.71z"/>
				<path class="st0" d="M51.94,76.03c0-0.56-0.45-1.02-1.02-1.02c-0.56,0-1.02,0.46-1.02,1.02c0,0.56,0.46,1.02,1.02,1.02
					C51.49,77.05,51.94,76.59,51.94,76.03z"/>
				<path class="st0" d="M48.96,75.03c0-0.56-0.45-1.02-1.02-1.02c-0.56,0-1.02,0.46-1.02,1.02s0.46,1.02,1.02,1.02
					C48.51,76.04,48.96,75.59,48.96,75.03z"/>
				<path class="st0" d="M46.51,73.4c0-0.56-0.45-1.02-1.02-1.02c-0.56,0-1.02,0.46-1.02,1.02c0,0.56,0.46,1.02,1.02,1.02
					C46.05,74.42,46.51,73.96,46.51,73.4z"/>
				<path class="st0" d="M44.61,71.62c0-0.56-0.45-1.02-1.02-1.02c-0.56,0-1.02,0.46-1.02,1.02c0,0.56,0.46,1.02,1.02,1.02
					C44.15,72.63,44.61,72.18,44.61,71.62z"/>
				<path class="st0" d="M42.78,69.33c0-0.56-0.45-1.02-1.02-1.02c-0.56,0-1.02,0.46-1.02,1.02c0,0.56,0.46,1.02,1.02,1.02
					C42.32,70.35,42.78,69.9,42.78,69.33z"/>
				<path class="st0" d="M41.15,66.92c0-0.56-0.45-1.02-1.02-1.02c-0.56,0-1.02,0.46-1.02,1.02c0,0.56,0.45,1.02,1.02,1.02
					C40.69,67.93,41.15,67.48,41.15,66.92z"/>
				<path class="st0" d="M39.91,64.2c0-0.56-0.45-1.02-1.02-1.02c-0.56,0-1.02,0.46-1.02,1.02c0,0.56,0.46,1.02,1.02,1.02
					C39.46,65.21,39.91,64.76,39.91,64.2z"/>
				<path class="st0" d="M39.11,61.52c0-0.56-0.46-1.02-1.02-1.02c-0.56,0-1.02,0.45-1.02,1.02c0,0.56,0.45,1.02,1.02,1.02
					C38.66,62.53,39.11,62.08,39.11,61.52z"/>
				<path class="st0" d="M38.9,58.9c0-0.56-0.46-1.02-1.02-1.02c-0.56,0-1.02,0.45-1.02,1.02c0,0.56,0.46,1.02,1.02,1.02
					C38.44,59.91,38.9,59.46,38.9,58.9z"/>
				<path class="st0" d="M54.67,80.93c0-0.56-0.45-1.02-1.02-1.02c-0.56,0-1.02,0.46-1.02,1.02c0,0.56,0.46,1.02,1.02,1.02
					C54.21,81.95,54.67,81.49,54.67,80.93z"/>
				<path class="st0" d="M52.15,80.36c0-0.56-0.46-1.02-1.02-1.02c-0.56,0-1.02,0.46-1.02,1.02c0,0.56,0.45,1.02,1.02,1.02
					C51.69,81.38,52.15,80.92,52.15,80.36z"/>
				<path class="st0" d="M49.73,79.48c0-0.56-0.45-1.02-1.02-1.02c-0.56,0-1.02,0.46-1.02,1.02c0,0.56,0.46,1.02,1.02,1.02
					C49.27,80.5,49.73,80.04,49.73,79.48z"/>
				<path class="st0" d="M47.35,78.33c0-0.56-0.45-1.02-1.02-1.02c-0.56,0-1.02,0.46-1.02,1.02c0,0.56,0.46,1.02,1.02,1.02
					C46.89,79.34,47.35,78.89,47.35,78.33z"/>
				<path class="st0" d="M45.11,77.05c0-0.56-0.45-1.02-1.02-1.02c-0.56,0-1.02,0.46-1.02,1.02c0,0.56,0.46,1.02,1.02,1.02
					C44.66,78.06,45.11,77.61,45.11,77.05z"/>
				<path class="st0" d="M43.01,75.43c0-0.56-0.45-1.02-1.02-1.02c-0.56,0-1.02,0.46-1.02,1.02s0.46,1.02,1.02,1.02
					C42.56,76.45,43.01,75.99,43.01,75.43z"/>
				<path class="st0" d="M41.15,73.65c0-0.56-0.45-1.02-1.02-1.02c-0.56,0-1.02,0.45-1.02,1.02c0,0.56,0.45,1.02,1.02,1.02
					C40.69,74.67,41.15,74.21,41.15,73.65z"/>
				<path class="st0" d="M39.48,71.62c0-0.56-0.45-1.02-1.02-1.02c-0.56,0-1.02,0.46-1.02,1.02c0,0.56,0.46,1.02,1.02,1.02
					C39.03,72.63,39.48,72.18,39.48,71.62z"/>
				<path class="st0" d="M38,69.47c0-0.56-0.45-1.02-1.02-1.02c-0.56,0-1.02,0.46-1.02,1.02c0,0.56,0.46,1.02,1.02,1.02
					C37.55,70.48,38,70.03,38,69.47z"/>
				<path class="st0" d="M36.76,67.22c0-0.56-0.46-1.02-1.02-1.02c-0.56,0-1.02,0.46-1.02,1.02c0,0.56,0.46,1.02,1.02,1.02
					C36.31,68.23,36.76,67.78,36.76,67.22z"/>
				<path class="st0" d="M35.6,64.63c0-0.56-0.45-1.02-1.02-1.02c-0.56,0-1.02,0.46-1.02,1.02c0,0.56,0.46,1.02,1.02,1.02
					C35.14,65.64,35.6,65.19,35.6,64.63z"/>
				<path class="st0" d="M34.8,61.84c0-0.56-0.46-1.02-1.02-1.02c-0.56,0-1.02,0.46-1.02,1.02s0.46,1.02,1.02,1.02
					C34.35,62.86,34.8,62.41,34.8,61.84z"/>
				<path class="st0" d="M34.58,59.01c0-0.56-0.46-1.02-1.02-1.02c-0.56,0-1.02,0.46-1.02,1.02c0,0.56,0.46,1.02,1.02,1.02
					C34.12,60.02,34.58,59.57,34.58,59.01z"/>
			</g>
			<g>
				<path class="st0" d="M58.46,81.18c0-0.56,0.46-1.02,1.02-1.02c0.56,0,1.02,0.46,1.02,1.02c0,0.56-0.46,1.02-1.02,1.02
					C58.92,82.2,58.46,81.74,58.46,81.18z"/>
				<path class="st0" d="M58.31,77.05c0-0.56,0.45-1.02,1.02-1.02c0.56,0,1.02,0.46,1.02,1.02c0,0.56-0.46,1.02-1.02,1.02
					C58.77,78.06,58.31,77.61,58.31,77.05z"/>
				<path class="st0" d="M61.18,76.71c0-0.56,0.45-1.02,1.02-1.02c0.56,0,1.02,0.46,1.02,1.02c0,0.56-0.46,1.02-1.02,1.02
					C61.63,77.73,61.18,77.28,61.18,76.71z"/>
				<path class="st0" d="M63.9,76.03c0-0.56,0.45-1.02,1.02-1.02c0.56,0,1.02,0.46,1.02,1.02c0,0.56-0.46,1.02-1.02,1.02
					C64.36,77.05,63.9,76.59,63.9,76.03z"/>
				<path class="st0" d="M66.88,75.03c0-0.56,0.45-1.02,1.02-1.02c0.56,0,1.02,0.46,1.02,1.02s-0.46,1.02-1.02,1.02
					C67.34,76.04,66.88,75.59,66.88,75.03z"/>
				<path class="st0" d="M69.34,73.4c0-0.56,0.45-1.02,1.02-1.02c0.56,0,1.02,0.46,1.02,1.02c0,0.56-0.46,1.02-1.02,1.02
					C69.79,74.42,69.34,73.96,69.34,73.4z"/>
				<path class="st0" d="M71.23,71.62c0-0.56,0.45-1.02,1.02-1.02c0.56,0,1.02,0.46,1.02,1.02c0,0.56-0.46,1.02-1.02,1.02
					C71.69,72.63,71.23,72.18,71.23,71.62z"/>
				<path class="st0" d="M73.07,69.33c0-0.56,0.45-1.02,1.02-1.02c0.56,0,1.02,0.46,1.02,1.02c0,0.56-0.46,1.02-1.02,1.02
					C73.52,70.35,73.07,69.9,73.07,69.33z"/>
				<path class="st0" d="M74.7,66.92c0-0.56,0.45-1.02,1.02-1.02c0.56,0,1.02,0.46,1.02,1.02c0,0.56-0.45,1.02-1.02,1.02
					C75.15,67.93,74.7,67.48,74.7,66.92z"/>
				<path class="st0" d="M75.93,64.2c0-0.56,0.45-1.02,1.02-1.02c0.56,0,1.02,0.46,1.02,1.02c0,0.56-0.46,1.02-1.02,1.02
					C76.39,65.21,75.93,64.76,75.93,64.2z"/>
				<path class="st0" d="M76.73,61.52c0-0.56,0.46-1.02,1.02-1.02c0.56,0,1.02,0.45,1.02,1.02c0,0.56-0.45,1.02-1.02,1.02
					C77.19,62.53,76.73,62.08,76.73,61.52z"/>
				<path class="st0" d="M76.95,58.9c0-0.56,0.46-1.02,1.02-1.02c0.56,0,1.02,0.45,1.02,1.02c0,0.56-0.46,1.02-1.02,1.02
					C77.4,59.91,76.95,59.46,76.95,58.9z"/>
				<path class="st0" d="M61.18,80.93c0-0.56,0.45-1.02,1.02-1.02c0.56,0,1.02,0.46,1.02,1.02c0,0.56-0.46,1.02-1.02,1.02
					C61.63,81.95,61.18,81.49,61.18,80.93z"/>
				<path class="st0" d="M63.7,80.36c0-0.56,0.46-1.02,1.02-1.02c0.56,0,1.02,0.46,1.02,1.02c0,0.56-0.45,1.02-1.02,1.02
					C64.15,81.38,63.7,80.92,63.7,80.36z"/>
				<path class="st0" d="M66.12,79.48c0-0.56,0.45-1.02,1.02-1.02c0.56,0,1.02,0.46,1.02,1.02c0,0.56-0.46,1.02-1.02,1.02
					C66.57,80.5,66.12,80.04,66.12,79.48z"/>
				<path class="st0" d="M68.5,78.33c0-0.56,0.45-1.02,1.02-1.02c0.56,0,1.02,0.46,1.02,1.02c0,0.56-0.46,1.02-1.02,1.02
					C68.95,79.34,68.5,78.89,68.5,78.33z"/>
				<path class="st0" d="M70.73,77.05c0-0.56,0.45-1.02,1.02-1.02c0.56,0,1.02,0.46,1.02,1.02c0,0.56-0.46,1.02-1.02,1.02
					C71.19,78.06,70.73,77.61,70.73,77.05z"/>
				<path class="st0" d="M72.83,75.43c0-0.56,0.45-1.02,1.02-1.02c0.56,0,1.02,0.46,1.02,1.02s-0.46,1.02-1.02,1.02
					C73.29,76.45,72.83,75.99,72.83,75.43z"/>
				<path class="st0" d="M74.7,73.65c0-0.56,0.45-1.02,1.02-1.02c0.56,0,1.02,0.45,1.02,1.02c0,0.56-0.45,1.02-1.02,1.02
					C75.15,74.67,74.7,74.21,74.7,73.65z"/>
				<path class="st0" d="M76.36,71.62c0-0.56,0.45-1.02,1.02-1.02c0.56,0,1.02,0.46,1.02,1.02c0,0.56-0.46,1.02-1.02,1.02
					C76.82,72.63,76.36,72.18,76.36,71.62z"/>
				<path class="st0" d="M77.84,69.47c0-0.56,0.45-1.02,1.02-1.02c0.56,0,1.02,0.46,1.02,1.02c0,0.56-0.46,1.02-1.02,1.02
					C78.29,70.48,77.84,70.03,77.84,69.47z"/>
				<path class="st0" d="M79.08,67.22c0-0.56,0.46-1.02,1.02-1.02c0.56,0,1.02,0.46,1.02,1.02c0,0.56-0.46,1.02-1.02,1.02
					C79.54,68.23,79.08,67.78,79.08,67.22z"/>
				<path class="st0" d="M80.25,64.63c0-0.56,0.46-1.02,1.02-1.02c0.56,0,1.02,0.46,1.02,1.02c0,0.56-0.46,1.02-1.02,1.02
					C80.7,65.64,80.25,65.19,80.25,64.63z"/>
				<path class="st0" d="M81.04,61.84c0-0.56,0.46-1.02,1.02-1.02c0.56,0,1.02,0.46,1.02,1.02s-0.46,1.02-1.02,1.02
					C81.5,62.86,81.04,62.41,81.04,61.84z"/>
				<path class="st0" d="M81.26,59.01c0-0.56,0.46-1.02,1.02-1.02c0.56,0,1.02,0.46,1.02,1.02c0,0.56-0.46,1.02-1.02,1.02
					C81.72,60.02,81.26,59.57,81.26,59.01z"/>
			</g>
		</g>
	</g>
</g>
</svg>
