<svg xmlns="http://www.w3.org/2000/svg" viewBox="0 0 76.72 76.73"><defs><style>.cls-1{fill:#fff;}.cls-2{fill:#595757;}.cls-3{fill:#898989;}</style></defs><g id="图层_2" data-name="图层 2"><g id="图层_1-2" data-name="图层 1"><path class="cls-1" d="M76.72,38.36A38.36,38.36,0,1,1,38.36,0,38.36,38.36,0,0,1,76.72,38.36Z"/><path class="cls-2" d="M38.36,3.92A34.51,34.51,0,1,0,72.87,38.43,34.51,34.51,0,0,0,38.36,3.92Zm0,68.16A33.66,33.66,0,1,1,72,38.43,33.65,33.65,0,0,1,38.36,72.08Z"/><path class="cls-2" d="M38.36,0A38.37,38.37,0,1,0,76.72,38.36,38.36,38.36,0,0,0,38.36,0Zm0,74A35.62,35.62,0,1,1,74,38.36,35.62,35.62,0,0,1,38.36,74Z"/><path class="cls-3" d="M34.14,55.69s.45-.84,1-.12c0,0,.38,1.21,3.43,1.21a2.5,2.5,0,0,1,2.27,2.07s-.19,2.85,1.61,3.8c0,0,.42.29,3.15.25a1.45,1.45,0,0,1,1.21,1.35,1.53,1.53,0,0,1-.87.52,7,7,0,0,1-4.42-.2,12.14,12.14,0,0,1-3.39-2.52s-.76-.49-.8.93a1.71,1.71,0,0,0,.52,1.2,4.32,4.32,0,0,0,1.66.94,5.11,5.11,0,0,1,2.93,1.73c.57.94.45,1.19.35,1.35a.55.55,0,0,1-.79-.07,2.11,2.11,0,0,0-1.16-.75s-3.13-.33-4.09.06a4,4,0,0,1-3.89-2.52,5.19,5.19,0,0,1-.17-1.09c0-.46-.74-.53-1-.4,0,0-9.82,1.86-12.56-7.92a1.63,1.63,0,0,0-.57-1s-2.95-1.06-3.63-6.95c0,0-.28-2.64-1.67-3.26,0,0-3.2-2.46-3.26-4.88,0,0-.15-1.68,1-.84a2.12,2.12,0,0,1,.3.68,8.49,8.49,0,0,0,3,3.33A4.78,4.78,0,0,0,16,43a2.91,2.91,0,0,1,1.57.52c.13.08.68.14.83-.17s1.78-1.2,2.13-.61c0,0,.18.26-.17.93,0,0-.21.67.06.93a1.6,1.6,0,0,0,.82.32c.26.07,2.45.34,4.9,6,0,0,1.48,4.55,4.56,5.25S34.14,55.69,34.14,55.69Z"/><path class="cls-3" d="M25.71,34a36.93,36.93,0,0,0,9.67,16.09.62.62,0,0,1,.11.82,1.55,1.55,0,0,0-.5.75,1.87,1.87,0,0,1-1.77-.5,11.82,11.82,0,0,1-4.59-7.05c-1-4.48-4.2-7.17-4.72-7,0,0-1.13-.25-1.35.26s.3.69.71,1,2.47.71,3.61,4.34c0,0,1.29,4.53,2.1,5.39,0,0,.31.9-.42.36s-2.31-3.87-2.46-4.81a9.1,9.1,0,0,0-4.89-5.4s-1.14-.16-1,.47a1.11,1.11,0,0,0,.67,1,5.52,5.52,0,0,1,3.6,3.5c.87,2.68,2.57,6.13,5.83,8.06a10.82,10.82,0,0,0,4.5,1.8,3.24,3.24,0,0,0,3,3.17A3,3,0,0,0,41,53.53H42.1a.81.81,0,0,0-.11-.68,8.61,8.61,0,0,0-1.52-2.05,4.14,4.14,0,0,0-3.25-.92S35,39.5,26.08,33.5C26.08,33.5,25.62,33.71,25.71,34Z"/><path class="cls-1" d="M38.22,52.66a.36.36,0,0,1-.71,0,.36.36,0,0,1,.71,0Z"/><path class="cls-3" d="M8.67,41.24s.92,1.71,1.61,2a7.07,7.07,0,0,1,3.92,4.79c.71,3.44,1.22,3.56,1.48,3.84a.32.32,0,0,1-.32.55,4.86,4.86,0,0,1-1.51-2.26,6.37,6.37,0,0,0-4-5.34,3.35,3.35,0,0,1-2.48-2.6s-.05-1.11.55-1.2S8.67,41.24,8.67,41.24Z"/><path class="cls-3" d="M55,32.85s-1,0-.58-.79c0,0,.85-.93-.67-3.57a2.51,2.51,0,0,1,.65-3s2.57-1.26,2.48-3.29c0,0,0-.51-1.35-2.85a1.46,1.46,0,0,1,.56-1.72,1.54,1.54,0,0,1,.89.49A7.09,7.09,0,0,1,59,22a12.33,12.33,0,0,1-.49,4.2s0,.9,1.2.23a1.68,1.68,0,0,0,.78-1.05,4.33,4.33,0,0,0,0-1.91,5.09,5.09,0,0,1,0-3.4c.53-1,.81-1,1-1a.54.54,0,0,1,.34.72,2.11,2.11,0,0,0-.07,1.37s1.27,2.89,2.09,3.52a4,4,0,0,1-.23,4.63,5,5,0,0,1-.86.7c-.4.23-.09.9.15,1.05,0,0,6.52,7.57-.58,14.84a1.61,1.61,0,0,0-.61,1s.55,3.09-4.21,6.62c0,0-2.15,1.56-2,3.07,0,0-.53,4-2.59,5.27,0,0-1.39,1-1.26-.49a2.16,2.16,0,0,1,.44-.6,8.53,8.53,0,0,0,1.39-4.26,4.79,4.79,0,0,0-.5-1.65,3,3,0,0,1-.33-1.62c0-.15-.22-.66-.56-.63s-1.92-.94-1.59-1.54c0,0,.13-.29.89-.32,0,0,.68-.16.77-.52a1.62,1.62,0,0,0-.13-.87c-.07-.26-.92-2.29,2.7-7.22,0,0,3.21-3.56,2.27-6.57S55,32.85,55,32.85Z"/><path class="cls-3" d="M40.47,51a36.85,36.85,0,0,0,9.09-16.42.63.63,0,0,1,.66-.51,1.5,1.5,0,0,0,.9.06,1.88,1.88,0,0,1,.46,1.78,11.89,11.89,0,0,1-3.82,7.5C44.39,46.51,43.65,50.6,44,51c0,0,.36,1.09.91,1s.45-.61.47-1.1-.61-2.49,2-5.29c0,0,3.27-3.39,3.61-4.52,0,0,.62-.72.52.18s-2.19,3.94-2.93,4.54a9,9,0,0,0-2.23,6.93s.43,1.08.92.66a1.11,1.11,0,0,0,.53-1.08A5.53,5.53,0,0,1,49,47.49c1.89-2.09,4-5.29,4.07-9.08a10.85,10.85,0,0,0-.69-4.8,3.24,3.24,0,0,0,1.25-4.17,3,3,0,0,0-4-1.49L49.15,27a.82.82,0,0,0-.53.43,8.62,8.62,0,0,0-1,2.34,4.15,4.15,0,0,0,.83,3.28s-7.91,7.07-8.62,17.83C39.81,50.91,40.23,51.21,40.47,51Z"/><path class="cls-1" d="M50.34,30.83a.35.35,0,0,1,.48.12.35.35,0,0,1-.13.48.35.35,0,1,1-.35-.6Z"/><path class="cls-3" d="M55.22,62.12a6.53,6.53,0,0,0,1-2.41,7,7,0,0,1,2.18-5.79c2.63-2.34,2.47-2.83,2.58-3.2a.33.33,0,0,1,.65,0,4.91,4.91,0,0,1-1.21,2.44,6.35,6.35,0,0,0-2.6,6.18,3.32,3.32,0,0,1-1,3.44s-.93.6-1.3.12S55.22,62.12,55.22,62.12Z"/><path class="cls-3" d="M25,25.8s.5.8-.38.89c0,0-1.24-.27-2.77,2.37A2.5,2.5,0,0,1,19,30s-2.37-1.6-4.09-.51c0,0-.46.22-1.79,2.6a1.44,1.44,0,0,1-1.77.37,1.49,1.49,0,0,1,0-1,7,7,0,0,1,2.38-3.73,12.1,12.1,0,0,1,3.87-1.67s.81-.41-.4-1.16a1.65,1.65,0,0,0-1.29-.15,4.36,4.36,0,0,0-1.65,1,5.11,5.11,0,0,1-3,1.67c-1.1,0-1.26-.21-1.34-.37a.53.53,0,0,1,.45-.65,2.08,2.08,0,0,0,1.22-.63s1.86-2.54,2-3.57a4,4,0,0,1,4.13-2.11,5,5,0,0,1,1,.39c.4.23.83-.37.84-.65,0,0,3.3-9.44,13.14-6.92a1.59,1.59,0,0,0,1.18,0s2.4-2,7.84.33c0,0,2.43,1.08,3.65.19,0,0,3.74-1.55,5.86-.39,0,0,1.53.71.2,1.33a2.13,2.13,0,0,1-.74-.08,8.52,8.52,0,0,0-4.38.93,5,5,0,0,0-1.18,1.25,3,3,0,0,1-1.23,1.1c-.14.07-.46.52-.27.81s.15,2.13-.54,2.14c0,0-.31,0-.72-.61,0,0-.48-.51-.84-.41s-.48.36-.68.55S39.33,22,33.24,21.31c0,0-4.68-1-6.82,1.32S25,25.8,25,25.8Z"/><path class="cls-3" d="M48,29.32a36.89,36.89,0,0,0-18.77.34.65.65,0,0,1-.77-.32,1.49,1.49,0,0,0-.39-.81,1.86,1.86,0,0,1,1.31-1.29,11.88,11.88,0,0,1,8.41-.44c4.39,1.35,8.3-.05,8.47-.57,0,0,.77-.85.44-1.3s-.75-.08-1.18.15-1.86,1.77-5.57.94c0,0-4.57-1.14-5.71-.86,0,0-.94-.19-.11-.55s4.51-.07,5.39.27a9.11,9.11,0,0,0,7.13-1.54s.71-.9.11-1.12a1.09,1.09,0,0,0-1.2.08,5.56,5.56,0,0,1-4.84,1.37c-2.75-.6-6.59-.84-9.9,1s-3.67,3-3.8,3a3.24,3.24,0,0,0-4.24,1,3,3,0,0,0,.68,4.16l-.53.92a.85.85,0,0,0,.64.25,8.57,8.57,0,0,0,2.53-.29,4.14,4.14,0,0,0,2.43-2.36s10.08,3.31,19.75-1.45C48.27,29.92,48.32,29.41,48,29.32Z"/><path class="cls-1" d="M25.61,30.84a.35.35,0,0,1,.35-.61.35.35,0,1,1-.35.61Z"/><path class="cls-3" d="M50.28,11a6.56,6.56,0,0,0-2.58.37,7.08,7.08,0,0,1-6.1,1c-3.34-1.1-3.69-.72-4.07-.64a.32.32,0,0,1-.32-.55A4.91,4.91,0,0,1,39.93,11a6.37,6.37,0,0,0,6.65-.83,3.34,3.34,0,0,1,3.49-.85s1,.51.76,1.07S50.28,11,50.28,11Z"/></g></g></svg>