<svg xmlns="http://www.w3.org/2000/svg" viewBox="0 0 74.16 74.16"><defs><style>.cls-1{fill:#dfe1e2;}.cls-2{fill:#3e3a39;}.cls-3{fill:#f7f8f8;}.cls-4{fill:#727171;}.cls-5{fill:#9fa0a0;}</style></defs><g id="图层_2" data-name="图层 2"><g id="图层_1-2" data-name="图层 1"><path class="cls-1" d="M74.16,37.08A37.08,37.08,0,1,0,37.08,74.16,37.08,37.08,0,0,0,74.16,37.08Z"/><path class="cls-2" d="M71.39,37.08A34.31,34.31,0,1,0,37.08,71.39,34.31,34.31,0,0,0,71.39,37.08Z"/><path class="cls-1" d="M65.41,37.08A28.33,28.33,0,1,0,37.08,65.41,28.32,28.32,0,0,0,65.41,37.08Z"/><path class="cls-2" d="M63.29,37.08A26.21,26.21,0,1,0,37.08,63.29,26.22,26.22,0,0,0,63.29,37.08Z"/><path class="cls-1" d="M11,25.25A2.89,2.89,0,1,0,8,28,2.89,2.89,0,0,0,11,25.25Z"/><path class="cls-1" d="M13.55,19.87a2.89,2.89,0,1,0-3,2.78A2.87,2.87,0,0,0,13.55,19.87Z"/><path class="cls-1" d="M17.34,15.5a2.89,2.89,0,1,0-3,2.79A2.88,2.88,0,0,0,17.34,15.5Z"/><path class="cls-1" d="M21.61,11.78a2.89,2.89,0,1,0-3,2.78A2.87,2.87,0,0,0,21.61,11.78Z"/><path class="cls-1" d="M26.85,8.84a2.89,2.89,0,1,0-3,2.78A2.89,2.89,0,0,0,26.85,8.84Z"/><path class="cls-1" d="M50.06,11.85a2.89,2.89,0,1,0-2.65-3.12A2.89,2.89,0,0,0,50.06,11.85Z"/><path class="cls-1" d="M55.31,14.63a2.89,2.89,0,1,0-2.65-3.12A2.88,2.88,0,0,0,55.31,14.63Z"/><path class="cls-1" d="M59.5,18.61a2.89,2.89,0,1,0-2.64-3.11A2.89,2.89,0,0,0,59.5,18.61Z"/><path class="cls-1" d="M63,23a2.89,2.89,0,1,0-2.64-3.11A2.89,2.89,0,0,0,63,23Z"/><path class="cls-1" d="M65.73,28.41a2.89,2.89,0,1,0-2.64-3.11A2.88,2.88,0,0,0,65.73,28.41Z"/><path class="cls-1" d="M62.78,49.65a2.89,2.89,0,1,0,3-2.74A2.89,2.89,0,0,0,62.78,49.65Z"/><path class="cls-1" d="M60.17,55a2.89,2.89,0,1,0,3-2.74A2.89,2.89,0,0,0,60.17,55Z"/><path class="cls-1" d="M56.32,59.31a2.88,2.88,0,1,0,3-2.74A2.89,2.89,0,0,0,56.32,59.31Z"/><path class="cls-1" d="M52,63a2.89,2.89,0,1,0,3-2.74A2.9,2.9,0,0,0,52,63Z"/><path class="cls-1" d="M46.71,65.84a2.89,2.89,0,1,0,3-2.74A2.89,2.89,0,0,0,46.71,65.84Z"/><path class="cls-1" d="M25.16,63.31a2.89,2.89,0,1,0,2.77,3A2.9,2.9,0,0,0,25.16,63.31Z"/><path class="cls-1" d="M19.79,60.76a2.89,2.89,0,1,0,2.77,3A2.9,2.9,0,0,0,19.79,60.76Z"/><path class="cls-1" d="M15.42,57a2.89,2.89,0,1,0,2.78,3A2.88,2.88,0,0,0,15.42,57Z"/><path class="cls-1" d="M11.7,52.7a2.89,2.89,0,1,0,2.78,3A2.89,2.89,0,0,0,11.7,52.7Z"/><path class="cls-1" d="M8.76,47.45a2.89,2.89,0,1,0,2.78,3A2.89,2.89,0,0,0,8.76,47.45Z"/><path class="cls-1" d="M29.86,9.68,28.28,3.91A33,33,0,0,1,47,4.21L45.48,10A30.07,30.07,0,0,0,29.86,9.68Z"/><polygon class="cls-3" points="32.17 9.19 31.29 3.21 37.47 6.57 32.17 9.19"/><polygon class="cls-4" points="43.58 9.52 37.47 6.57 44.43 3.56 43.58 9.52"/><path class="cls-2" d="M31.29,3.2a37.13,37.13,0,0,1,13.14.36l-7,3Z"/><path class="cls-5" d="M32.17,9.19l5.29-2.62,6.12,2.95A32,32,0,0,0,32.17,9.19Z"/><path class="cls-1" d="M29.86,64.42l-1.58,6A32.75,32.75,0,0,0,47,70.15l-1.47-6.07A29.94,29.94,0,0,1,29.86,64.42Z"/><polygon class="cls-3" points="32.17 64.91 31.29 70.9 37.47 67.53 32.17 64.91"/><polygon class="cls-4" points="43.58 64.59 37.47 67.53 44.43 70.55 43.58 64.59"/><path class="cls-2" d="M31.29,70.9a37.27,37.27,0,0,0,13.14-.35l-7-3Z"/><path class="cls-5" d="M32.17,64.91l5.29,2.62,6.12-2.94A31.85,31.85,0,0,1,32.17,64.91Z"/><path class="cls-1" d="M64.19,45.28,70.13,47a32.69,32.69,0,0,0,.27-18.67l-6.11,1.3A30,30,0,0,1,64.19,45.28Z"/><polygon class="cls-3" points="64.75 42.98 70.71 44.03 67.52 37.77 64.75 42.98"/><polygon class="cls-4" points="64.74 31.58 67.52 37.77 70.73 30.89 64.74 31.58"/><path class="cls-2" d="M70.71,44a37,37,0,0,0,0-13.14l-3.21,6.88Z"/><path class="cls-5" d="M64.75,43l2.77-5.21-2.78-6.19A31.61,31.61,0,0,1,64.75,43Z"/><path class="cls-1" d="M10.16,45.49,4.24,47.3a32.7,32.7,0,0,1-.46-18.66l6.11,1.23A30,30,0,0,0,10.16,45.49Z"/><polygon class="cls-3" points="9.58 43.2 3.63 44.31 6.75 38.02 9.58 43.2"/><polygon class="cls-4" points="9.47 31.79 6.75 38.02 3.48 31.17 9.47 31.79"/><path class="cls-2" d="M3.63,44.31a37.14,37.14,0,0,1-.15-13.14L6.76,38Z"/><path class="cls-5" d="M9.58,43.2,6.76,38l2.71-6.23A31.76,31.76,0,0,0,9.58,43.2Z"/><path class="cls-1" d="M42.31,19.84s.82-1.25,3.2-.63,4.88,2.32,6.32-.62c0,0,2.69,3.88-.88,5.19s-4.13-3.69-9.14-1.63c0,0,1.69.69,3.13,3.82s8.32,3.51,11.2-.63a5.29,5.29,0,0,1-4.88,5.51,8,8,0,0,1-7.76-3.19,2.65,2.65,0,0,1-2.6,2.6c-2.47,0-2.53-4.92-4-5.48A6.2,6.2,0,0,1,33.3,29.1,6.75,6.75,0,0,1,40.69,31c3,3.63,7.78,2,8.6,2.85a2,2,0,0,0-1.43,1.43,6.45,6.45,0,0,1,2-.31c1.08,0,1-1.33.47-1.92s.18-1.69,1.69-.84.84,4.88-4.93,4.88c0,0,3.57,1.69,5.91-.66s-.47-5.44,2.16-6,4.93,7.88-5.4,9.24c0,0,3.43.94,5.87-.46s3.19.51,3.19.51,3,1,.28,3.29c0,0,.19,5.16-12.11,2.58,0,0-1.26.37-1.64,0,0,0,.1,2.3-.94,2.82,0,0,.43,2.16,3.38,2.86a4.57,4.57,0,0,1-4.41,0s-1.78,2.3-6.33,1c0,0,4.22-.56,4.92-3.75a5.74,5.74,0,0,1-2-3.9s-1.27,3.1-3.7,3.71a3.44,3.44,0,0,0,3,1.88,10.58,10.58,0,0,1-7.93.85s3.19-1,3.8-3a5.53,5.53,0,0,1-1.41-4,9.92,9.92,0,0,1-9.95-6.39C21,30.6,25.07,26.43,27.51,25.86S32,24.46,32,22.2a5.18,5.18,0,0,1-5.58.8,4.49,4.49,0,0,1-5,0s2.81-.94,3.61-2.49,1.36-3.85,5.44-3.85,6.48,4,6.48,6.67c0,0,0-1.18,1.46-1.18,0,0-3.74-4.62-1.27-7.08S43.41,15.69,42.31,19.84Z"/><path class="cls-3" d="M39.48,21s-3.22-3.69-.65-4.7S41.08,19.86,39.48,21Z"/><path class="cls-3" d="M38.45,24.36a2.25,2.25,0,0,1,1.27,2.11c0,1.6,2.49,2,2.18-.59S38.45,24.36,38.45,24.36Z"/><path class="cls-4" d="M25.73,21.69s.56-3.9,4.46-3.9S35.59,22,35.59,22s-1.53,1.43-3,1.08c0,0,0-1.17-.38-1.59A7,7,0,0,1,25.73,21.69Z"/><path class="cls-1" d="M29.72,19.81a1.82,1.82,0,0,1-2.25.56S27.84,18.4,29.72,19.81Z"/><path class="cls-4" d="M28.59,26.66s2.56-.59,3.43-1.46a2.75,2.75,0,0,0,2.86,1S32.44,28,32.16,29.71C32.16,29.71,29.51,29.89,28.59,26.66Z"/><path class="cls-3" d="M31.41,30.74a4.79,4.79,0,0,1-4-4,4.94,4.94,0,0,0-2.7,5.28c.57,3.84,5,2.39,4.84,1.08a1.63,1.63,0,0,1,1.88-.52S31,32.2,31.41,30.74Z"/><path class="cls-4" d="M38.78,34.54A2.13,2.13,0,0,0,39.9,32s2.91,3.48,7,3.1a5.1,5.1,0,0,1-2.81,2.07A11.91,11.91,0,0,1,38.78,34.54Z"/><path class="cls-3" d="M46.71,38.21a6.77,6.77,0,0,1-4-.47s-4,.16-6.25-2.07a6.72,6.72,0,0,1-4.5-2.53S34.65,42.43,46.71,38.21Z"/><path class="cls-4" d="M33.66,37.55A8,8,0,0,1,31,33.93s-4.46,4-6.85-.75C24.18,33.18,23.09,40.32,33.66,37.55Z"/><path class="cls-3" d="M24.88,38s3.8,3.42,9.82.66A5.93,5.93,0,0,0,38,39.9s-2.4,3.19-5.49,3.19S25.68,40.65,24.88,38Z"/><path class="cls-4" d="M36,47a4.8,4.8,0,0,1-.79-3.33s2.81-1.46,3.47-3.48c0,0,0,3.33.65,4C39.29,44.21,38,47,36,47Z"/><path class="cls-4" d="M43.47,47.88a10,10,0,0,1-3.38-7.7,7.74,7.74,0,0,0,3.48,0S45.27,46.43,43.47,47.88Z"/><path class="cls-3" d="M45.54,44.64a16.39,16.39,0,0,0-1-4.84,6,6,0,0,0,2.58-.65S48.73,43.51,45.54,44.64Z"/><path class="cls-3" d="M48.17,45a4.18,4.18,0,0,0,1-1.4s2.16,2.2,8.5,0C57.65,43.56,56.66,47,48.17,45Z"/><path class="cls-3" d="M49.43,42.9s4.79,1.27,7.89,0,2.39-2.68.65-2-5.58,2-8.49,1C49.48,41.91,49.62,42.71,49.43,42.9Z"/><path class="cls-3" d="M49.57,41.3a.73.73,0,0,0,0-1s3.85.84,5.78-.19,2.73-.61,2.44.19S51.73,42.33,49.57,41.3Z"/><path class="cls-1" d="M19.44,26.1s-2.63-2.59,0-4.6a3,3,0,0,1,4.79,3,3.19,3.19,0,0,1-3.05,2.48,1.76,1.76,0,0,0-.24,1.41s3.66,3.24.57,5.58c0,0,2,2.16,1.36,3.76s-2.44.28-2.44.28-.1,1.08-.47,1.08c0,0,3.24,1.74,3.52,4.13s-2,3-2.77,1.74c0,0,.23,1.5-.8,1.5,0,0,1.74.75,2,2,0,0,.45-2.69,2.94-2.23s1.78,3.71.14,4.47c0,0,1.08,2.53,4.93,2.2s5,2.58,9.57.89,6,1.64,10.42-3.33c0,0-1.45-3.14,1.32-3.47s2.51,2.6,2.16,3c0,0,.75,4.23-2.87,5.21a4.32,4.32,0,0,1-5,3.19,3.43,3.43,0,0,1-3,1s-3.29,3.7-7.74,0c0,0-3.85,1.12-5.21-2,0,0-5.59.38-7.42-4.92a3.79,3.79,0,0,1-1.92.23s-1.79,2-3.34-1.17c0,0-1.69.56-1.69-1.74a4.06,4.06,0,0,1,2.16-3.38,2,2,0,0,1-.65-1.92s-1.58,1.43-2.77.23.7-5.07,3.56-5.82a1.51,1.51,0,0,1-.65-1.17s-1.65.56-2.07-.8,1-2.91,2.72-3.66a1.45,1.45,0,0,1-.33-1,1.68,1.68,0,0,1-2.11,0c-.91-.92.33-3.76,3.76-4.74A2.34,2.34,0,0,1,19.44,26.1Z"/><path class="cls-3" d="M20.52,24.92s-1.34-1.1-.23-2.2a1.57,1.57,0,0,1,2.77.94A1.64,1.64,0,0,1,20.52,24.92Z"/><path class="cls-4" d="M19,27.88S15.56,29.52,15.92,31s1.73.11,1.73.11.23,2.07,1.41,2.07,1.19-1.88,1.19-1.88.28,1.66,1.27,1.27.13-3-.92-4A5.18,5.18,0,0,1,21,31.1a7.33,7.33,0,0,0-.88-2.19,3.78,3.78,0,0,0-.91,2.38,3.85,3.85,0,0,1,0-2.53A4.17,4.17,0,0,0,17.37,30a7.27,7.27,0,0,1,2-2S19,28.13,19,27.88Z"/><path class="cls-4" d="M18.6,39.15s-2,1-1.79,2.53a3.59,3.59,0,0,1,1.52-1.52s-.49,2,.45,2.89a6.3,6.3,0,0,1,.32-2.53s.56,1.66,2,1.66c0,0-1.63-1.53-1.63-2.82,0,0,3.07,1.85,3.29,3.63S20.85,44.9,20,42.65c0,0,.56,3.1-1.06,3.1s-1.07-3.13-1.07-3.13-1.59,1.94-2.59,1.22S15.22,40.18,18.6,39.15Z"/><path class="cls-3" d="M18.37,33.51A4.07,4.07,0,0,0,17,35.36a3.29,3.29,0,0,1,1.63-1.19,3.3,3.3,0,0,0,0,2.13,5,5,0,0,1,.75-2.54s.52,1.15,1.12,1.44a3.84,3.84,0,0,1-.43-1.63s2.13,1.76,2.13,3.13-1.62.93-2-.61c0,0,0,2.4-1.39,2.12s-1-2-1-2-.9,1.13-1.78.57S15.72,34.2,18.37,33.51Z"/><path class="cls-3" d="M18.66,46.53a1.58,1.58,0,0,0-1.44,1.81,1.12,1.12,0,0,1,1-1,2.72,2.72,0,0,0,.55,2.33,5.89,5.89,0,0,1,.25-2.1,1,1,0,0,0,.86.87,3.81,3.81,0,0,1-.39-1.68S22,48.28,22,50s-1.38,2.07-2.1.5c0,0-.06,1.94-1.25,1.66S17.47,50,17.47,50s-.56.66-1.1.13S15.62,46.94,18.66,46.53Z"/><path class="cls-4" d="M23.45,50.5a5.28,5.28,0,0,0,2.09,4.7,6.55,6.55,0,0,0,5.51,1,1.79,1.79,0,0,0,.53,2c1,1,3.13.79,3.26-.59s-1.57-1.88-2.1-1-1.28-.38-.22-.88,2.79-.47,3.07,1.31A3.44,3.44,0,0,0,39.22,60c1.9,0,3-2.09,3-2.09s1.33,1,2.13.19-.66-3.16,1.22-3.51,2.25,1.69,1.47,1.94.09-1.13-1-1.13-1.22,2.29.34,2.29a3.57,3.57,0,0,0,3.38-3.26S53.2,54,52,49.56c0,0-.91,3.2-5.33,4.38s-4.19-.18-7.29,1-5.85-.66-8.94-1.13S25.7,54.26,23.45,50.5Z"/></g></g></svg>