<svg xmlns="http://www.w3.org/2000/svg" viewBox="0 0 78.28 78.28"><defs><style>.cls-1{fill:#3e3a39;}.cls-2{fill:#efefef;}.cls-3{fill:none;stroke:#3e3a39;stroke-miterlimit:10;}.cls-4{fill:#b5b5b6;}.cls-5{fill:#898989;}.cls-6{fill:#dcdddd;}.cls-7{fill:#727171;}</style></defs><g id="图层_2" data-name="图层 2"><g id="图层_1-2" data-name="图层 1"><path class="cls-1" d="M78.28,39.14A39.14,39.14,0,1,1,39.14,0,39.14,39.14,0,0,1,78.28,39.14Z"/><path class="cls-2" d="M39.14,4.81A34.33,34.33,0,1,0,73.48,39.14,34.33,34.33,0,0,0,39.14,4.81Z"/><path class="cls-3" d="M66.18,39.14a27,27,0,1,1-27-27A27,27,0,0,1,66.18,39.14Z"/><path class="cls-4" d="M28.27,30.73c3.6,7.1,9.93,1.94,10.87,8.41,3.91-5.24-4.21-6.07-1.73-13.63a12.59,12.59,0,0,0-.32-9.64,23.32,23.32,0,0,0-15.86,8.26A12.55,12.55,0,0,1,28.27,30.73Z"/><path class="cls-5" d="M47.56,28.27c-7.1,3.6-2,9.93-8.42,10.87,5.25,3.91,6.08-4.21,13.64-1.73a12.6,12.6,0,0,0,9.64-.32,23.37,23.37,0,0,0-8.27-15.86A12.59,12.59,0,0,1,47.56,28.27Z"/><path class="cls-6" d="M24,38.64c6.2,3.23,9.87-3.4,15.12.5-.94-6.47-7.27-1.31-10.87-8.41a12.55,12.55,0,0,0-7-6.6,23.32,23.32,0,0,0-5.42,13.71A10.34,10.34,0,0,1,24,38.64Z"/><path class="cls-7" d="M37.41,25.51c-2.48,7.56,5.64,8.39,1.73,13.63,6.47-.94,1.32-7.27,8.42-10.87a12.59,12.59,0,0,0,6.59-7,23.3,23.3,0,0,0-15-5.46c-.69,0-1.37,0-2,.1A12.59,12.59,0,0,1,37.41,25.51Z"/><path class="cls-6" d="M62.51,39.14c0-.69,0-1.37-.09-2a12.6,12.6,0,0,1-9.64.32c-7.56-2.48-8.39,5.64-13.64,1.73,1,6.47,8.24,4.38,10.35,11a10.26,10.26,0,0,0,5.23,6.37A23.3,23.3,0,0,0,62.51,39.14Z"/><path class="cls-5" d="M28.1,49.49c6.66-2.11,4.57-9.4,11-10.35-5.25-3.9-8.92,2.73-15.12-.5a10.34,10.34,0,0,0-8.21-.8c0,.43,0,.86,0,1.3a23.29,23.29,0,0,0,5.95,15.58A10.29,10.29,0,0,1,28.1,49.49Z"/><path class="cls-4" d="M49.49,50.19c-2.11-6.67-9.4-4.58-10.35-11-3.9,5.25,2.73,8.93-.49,15.13a10.3,10.3,0,0,0-.81,8.21c.43,0,.86,0,1.3,0a23.29,23.29,0,0,0,15.58-5.95A10.26,10.26,0,0,1,49.49,50.19Z"/><path class="cls-7" d="M38.65,54.27c3.22-6.2-3.41-9.88.49-15.13-6.47,1-4.38,8.24-11,10.35a10.29,10.29,0,0,0-6.38,5.23,23.35,23.35,0,0,0,16.12,7.76A10.3,10.3,0,0,1,38.65,54.27Z"/><path class="cls-1" d="M46.64,39.14a7.5,7.5,0,1,1-7.5-7.5A7.5,7.5,0,0,1,46.64,39.14Z"/><path class="cls-2" d="M45.68,39.14a6.54,6.54,0,1,1-6.54-6.54A6.54,6.54,0,0,1,45.68,39.14Z"/><path class="cls-4" d="M42.66,39.14a3.52,3.52,0,1,1-3.52-3.51A3.53,3.53,0,0,1,42.66,39.14Z"/><path class="cls-2" d="M31.52,50.05s-3.84,1.55-3.84,6.82C27.68,56.87,25.69,50.85,31.52,50.05Z"/><path class="cls-2" d="M33.2,51.34s-3.54,2.17-2.67,7.36C30.53,58.7,27.59,53.1,33.2,51.34Z"/><path class="cls-2" d="M35.09,52s-3.29,2.52-1.87,7.6C33.22,59.55,29.7,54.29,35.09,52Z"/><path class="cls-2" d="M37.47,52.84s-3.09,2.76-1.31,7.71C36.16,60.55,32.27,55.57,37.47,52.84Z"/><path class="cls-2" d="M45.06,27.11s3.84-1.55,3.84-6.82C48.9,20.29,50.89,26.31,45.06,27.11Z"/><path class="cls-2" d="M43.38,25.82s3.53-2.16,2.67-7.36C46.05,18.46,49,24.07,43.38,25.82Z"/><path class="cls-2" d="M41.49,25.21s3.28-2.52,1.87-7.6C43.36,17.61,46.88,22.87,41.49,25.21Z"/><path class="cls-2" d="M39.1,24.32s3.1-2.75,1.31-7.71C40.41,16.61,44.32,21.6,39.1,24.32Z"/><path class="cls-2" d="M50.34,45.35s1.55,3.84,6.82,3.84C57.16,49.19,51.14,51.18,50.34,45.35Z"/><path class="cls-2" d="M51.63,43.67s2.16,3.54,7.36,2.67C59,46.34,53.38,49.28,51.63,43.67Z"/><path class="cls-2" d="M52.24,41.78s2.52,3.28,7.6,1.87C59.84,43.65,54.58,47.17,52.24,41.78Z"/><path class="cls-2" d="M53.12,39.4s2.76,3.09,7.72,1.31C60.84,40.71,55.85,44.61,53.12,39.4Z"/><path class="cls-2" d="M27.4,31.81S25.85,28,20.58,28C20.58,28,26.6,26,27.4,31.81Z"/><path class="cls-2" d="M26.11,33.49S24,30,18.75,30.82C18.75,30.82,24.35,27.88,26.11,33.49Z"/><path class="cls-2" d="M25.5,35.38S23,32.1,17.9,33.51C17.9,33.51,23.16,30,25.5,35.38Z"/><path class="cls-2" d="M24.61,37.77s-2.75-3.1-7.71-1.31C16.9,36.46,21.89,32.56,24.61,37.77Z"/><path class="cls-1" d="M41.54,51.65s-1.62,3.81,2.11,7.54C43.65,59.19,38,56.34,41.54,51.65Z"/><path class="cls-1" d="M43.65,51.38s-1,4,3.31,7.09C47,58.47,40.92,56.58,43.65,51.38Z"/><path class="cls-1" d="M45.41,50.47s-.54,4.11,4.05,6.69C49.46,57.16,43.25,55.94,45.41,50.47Z"/><path class="cls-1" d="M47.73,49.41s-.24,4.13,4.52,6.38C52.25,55.79,46,55,47.73,49.41Z"/><path class="cls-1" d="M34.9,25.86s1.62-3.82-2.1-7.54C32.8,18.32,38.45,21.17,34.9,25.86Z"/><path class="cls-1" d="M32.79,26.13s1-4-3.31-7.09C29.48,19,35.53,20.92,32.79,26.13Z"/><path class="cls-1" d="M31,27s.54-4.11-4.05-6.7C27,20.34,33.19,21.57,31,27Z"/><path class="cls-1" d="M28.72,28.1S29,24,24.19,21.71C24.19,21.71,30.47,22.48,28.72,28.1Z"/><path class="cls-1" d="M51.53,35s3.81,1.62,7.54-2.1C59.07,32.92,56.22,38.57,51.53,35Z"/><path class="cls-1" d="M51.25,32.92s4,1,7.09-3.32C58.34,29.6,56.46,35.65,51.25,32.92Z"/><path class="cls-1" d="M50.35,31.15s4.11.54,6.69-4C57,27.1,55.82,33.31,50.35,31.15Z"/><path class="cls-1" d="M49.29,28.84s4.13.24,6.38-4.53C55.67,24.31,54.9,30.59,49.29,28.84Z"/><path class="cls-1" d="M25.73,41.66S21.92,40,18.19,43.77C18.19,43.77,21,38.11,25.73,41.66Z"/><path class="cls-1" d="M26,43.77s-4-1-7.09,3.32C18.92,47.09,20.8,41,26,43.77Z"/><path class="cls-1" d="M26.91,45.53s-4.1-.53-6.69,4.06C20.22,49.59,21.44,43.38,26.91,45.53Z"/><path class="cls-1" d="M28,47.85s-4.14-.24-6.39,4.53C21.59,52.38,22.36,46.09,28,47.85Z"/></g></g></svg>