<svg xmlns="http://www.w3.org/2000/svg" viewBox="0 0 59.92 59.72"><defs><style>.cls-1{fill:#dcdddd;}.cls-2{fill:#898989;}.cls-3{fill:#595757;}.cls-4{fill:#efefef;}.cls-5{fill:#3e3a39;}</style></defs><g id="图层_2" data-name="图层 2"><g id="图层_1-2" data-name="图层 1"><path class="cls-1" d="M59.92,40.86V18.28c-7.61.33-10.52,5.6-8.22,12.06,1.52,4.24-.53,6.27-1.3,7.07l1.37,3.45Z"/><path class="cls-1" d="M44.89,33.16c-3-6.19-8.76-7.87-14.37-2.75C25.38,36,27.06,41.8,33.27,44.74c4.07,1.92,4.07,4.81,4.09,5.91-.8.77-2.67,2.39-6.91.88-6.48-2.3-11.78.61-12.11,8.19H41v-7.5l-.22-.1,11.08-11L50.4,37.41C49.29,37.39,46.82,37.22,44.89,33.16Z"/><path class="cls-2" d="M41,59.72h0V56.84S33.74,53,29.43,53s-8.17,1.57-8.17,6.72H41Z"/><path class="cls-3" d="M25.8,59.72H41V58C28.74,54.7,25.8,59.72,25.8,59.72Z"/><path class="cls-2" d="M59.92,21.19c-5.17,0-6.74,3.84-6.74,8.14S57,40.86,57,40.86h2.89Z"/><path class="cls-3" d="M58.17,40.86h1.75V25.71S54.88,28.65,58.17,40.86Z"/><path class="cls-4" d="M0,53.17v6.55H12.3l.54-1C5.43,58.19,1.75,55.33,0,53.17Z"/><path class="cls-4" d="M53.35,0h6.57V12.26l-1,.54C58.38,5.41,55.51,1.74,53.35,0Z"/><path class="cls-4" d="M10.19,38.79c-3,1.51-4.54,6.93-.76,9.12s5.67-2.56,2.65-2.56c-2.77,0-4-5.43,2.12-5.71a6.47,6.47,0,0,1,1.65-.76C14.14,38.36,11.86,38,10.19,38.79Z"/><path class="cls-4" d="M25.63,31.89l.36-6a11.88,11.88,0,0,0-8.69-3.7c-5.6,0-7.42,2-7.42,5.13C9.88,27.34,0,23.57,0,31V34.8C9.49,23.8,21.1,29.1,25.63,31.89Z"/><path class="cls-4" d="M6.4,33.67c7.11-4.87,15.18-.4,19,2.32l.18-2.9C20.94,30,9.18,24.12,0,36.3v15c1.74,2.45,5.55,5.93,13.33,6.51l1.15-2.07C-1.47,55.62-2.79,40,6.4,33.67Z"/><path class="cls-4" d="M9.43,33.36C1.32,36-4.66,53.48,15.07,54.7l1.06-1.92C-3,52.1,4.14,34.72,12,34.72a12,12,0,0,1,9.25,3.89,19.59,19.59,0,0,1,3.91,1.08l.13-2.21C22.27,35.31,15.65,31.38,9.43,33.36Z"/><path class="cls-4" d="M16.67,51.8l2.44-4.42A8.55,8.55,0,0,0,14.72,40C9.88,39.55,9,44.6,12.08,44.6c3.55,0,3,4.74-.46,4.74S4.36,45.2,8,39.92c2.59-3.76,6.91-2.42,9.18-1.35a12.35,12.35,0,0,1,2.29-.13A10.74,10.74,0,0,0,12,35.94C5,35.94-.18,52.13,16.67,51.8Z"/><path class="cls-4" d="M38.92,10.15c1.51-3,7-4.52,9.15-.75S45.5,15.05,45.5,12c0-2.76-5.45-4-5.73,2.12A6.15,6.15,0,0,0,39,15.8C38.48,14.09,38.09,11.82,38.92,10.15Z"/><path class="cls-4" d="M32,25.55l-6,.36a11.83,11.83,0,0,1-3.71-8.67c0-5.58,2-7.39,5.15-7.39,0,0-3.79-9.85,3.63-9.85h3.85C23.88,9.46,29.2,21,32,25.55Z"/><path class="cls-4" d="M33.78,6.38c-4.88,7.08-.4,15.13,2.33,18.92l-2.9.17c-3.1-4.6-9-16.32,3.21-25.47H51.51C54,1.73,57.46,5.53,58,13.29L56,14.43C55.81-1.46,40.1-2.78,33.78,6.38Z"/><path class="cls-4" d="M33.48,9.4c2.59-8.09,20.18-14,21.4,5.63l-1.93,1C52.27-3,34.84,4.13,34.84,12a11.88,11.88,0,0,0,3.9,9.22,19.6,19.6,0,0,0,1.09,3.9l-2.23.13C35.42,22.2,31.48,15.6,33.48,9.4Z"/><path class="cls-4" d="M52,16.62,47.54,19a8.56,8.56,0,0,1-7.38-4.37C39.68,9.84,44.74,9,44.74,12c0,3.54,4.77,3,4.77-.46S45.35,4.35,40.05,8c-3.77,2.58-2.43,6.89-1.35,9.14a11.43,11.43,0,0,0-.14,2.29A10.77,10.77,0,0,1,36.06,12C36.06,5,52.3-.18,52,16.62Z"/><path class="cls-5" d="M0,51.34v1.83c1.75,2.16,5.43,5,12.84,5.57l.49-.89C5.55,57.27,1.74,53.79,0,51.34Z"/><path class="cls-5" d="M25.56,33.09l.07-1.2C21.1,29.1,9.49,23.8,0,34.8v1.5C9.18,24.12,20.94,30,25.56,33.09Z"/><path class="cls-5" d="M6.4,33.67C-2.79,40-1.47,55.62,14.48,55.78l.59-1.08C-4.66,53.48,1.32,36,9.43,33.36c6.22-2,12.84,2,15.86,4.12L25.38,36C21.58,33.27,13.51,28.8,6.4,33.67Z"/><path class="cls-5" d="M8,39.92c-3.63,5.28.15,9.42,3.63,9.42s4-4.74.46-4.74C9,44.6,9.88,39.55,14.72,40l-.6-.33.08,0c-6.13.28-4.89,5.71-2.12,5.71,3,0,1.13,4.75-2.65,2.56s-2.27-7.61.76-9.12c1.67-.83,4-.43,5.66.09a10.79,10.79,0,0,1,1.32-.31C14.9,37.5,10.58,36.16,8,39.92Z"/><path class="cls-5" d="M12,34.72c-7.86,0-15,17.38,4.13,18.06l.54-1C-.18,52.13,5,35.94,12,35.94a10.74,10.74,0,0,1,7.47,2.5,15.14,15.14,0,0,1,1.79.17A12,12,0,0,0,12,34.72Z"/><path class="cls-5" d="M51.51,0h1.84c2.16,1.74,5,5.41,5.59,12.8l-.9.49C57.46,5.53,54,1.73,51.51,0Z"/><path class="cls-5" d="M33.21,25.47,32,25.55C29.2,21,23.88,9.46,34.91,0h1.51C24.2,9.15,30.11,20.87,33.21,25.47Z"/><path class="cls-5" d="M33.78,6.38c6.32-9.16,22-7.84,22.18,8.05l-1.08.6C53.66-4.64,36.07,1.31,33.48,9.4c-2,6.2,1.94,12.8,4.12,15.81l-1.49.09C33.38,21.51,28.9,13.46,33.78,6.38Z"/><path class="cls-5" d="M40.05,8c5.3-3.62,9.46.15,9.46,3.61s-4.77,4-4.77.46c0-3-5.06-2.2-4.58,2.63a6.73,6.73,0,0,1-.33-.6.37.37,0,0,0-.06.09C40.05,8,45.5,9.28,45.5,12c0,3,4.77,1.13,2.57-2.64s-7.64-2.26-9.15.75c-.83,1.67-.44,3.94.09,5.65a8.75,8.75,0,0,0-.31,1.31C37.62,14.86,36.28,10.55,40.05,8Z"/><path class="cls-5" d="M34.84,12C34.84,4.13,52.27-3,53,16.08l-1,.54C52.3-.18,36.06,5,36.06,12a10.77,10.77,0,0,0,2.5,7.45,15.11,15.11,0,0,0,.18,1.78A11.88,11.88,0,0,1,34.84,12Z"/><path class="cls-2" d="M32.58,32.47c-3.66,3.65-2,7.47,1,10.51S44.5,48.41,44.5,48.41l2-2,2-2s-2.41-7.83-5.46-10.87S36.24,28.83,32.58,32.47Z"/><path class="cls-3" d="M35.79,35.67S34.31,41.3,45.3,47.61l.57-.56h0l.67-.67,1.23-1.23C41.44,34.2,35.79,35.67,35.79,35.67Z"/><path class="cls-2" d="M54.2,16.78c-2.38,1.47-8.32,5.3-5.11,12.66a8.76,8.76,0,0,1,.58,6.15,9.66,9.66,0,0,1-3.58-4.91c-3-7.46-9.87-6-12.59-5.36-2.22.53-4.76,1.26-7.57.52.74,2.8,0,5.33-.52,7.54-.64,2.72-2.12,9.62,5.37,12.56a8.83,8.83,0,0,1,4.78,3.94,9.73,9.73,0,0,1-6-1c-7.38-3.2-11.23,2.71-12.71,5.09-1.2,1.93-2.47,4.24-5,5.7h6.49c.33-7.58,5.63-10.49,12.11-8.19,4.24,1.51,6.11-.11,6.91-.88,0-1.1,0-4-4.09-5.91C27.06,41.8,25.38,36,30.52,30.41c5.61-5.12,11.42-3.44,14.37,2.75,1.93,4.06,4.4,4.23,5.51,4.25.77-.8,2.82-2.83,1.3-7.07-2.3-6.46.61-11.73,8.22-12.06V11.81C58.45,14.31,56.14,15.58,54.2,16.78Z"/><path class="cls-3" d="M51.36,13.84c-4.87,2.82-6.47,9.72-6.47,9.72s-6-3.75-11.47-2.32-12.23-.12-12.23-.12,1.57,6.75.13,12.18,2.32,11.44,2.32,11.44-6.92,1.59-9.75,6.45-8.74,8.53-8.74,8.53h6.7c2.51-1.46,3.78-3.77,5-5.7,1.48-2.38,5.33-8.29,12.71-5.09a9.73,9.73,0,0,0,6,1,8.83,8.83,0,0,0-4.78-3.94c-7.49-2.94-6-9.84-5.37-12.56.52-2.21,1.26-4.74.52-7.54,2.81.74,5.35,0,7.57-.52,2.72-.63,9.64-2.1,12.59,5.36a9.66,9.66,0,0,0,3.58,4.91,8.76,8.76,0,0,0-.58-6.15c-3.21-7.36,2.73-11.19,5.11-12.66,1.94-1.2,4.25-2.47,5.72-5V5.13S56.24,11,51.36,13.84Z"/></g></g></svg>