<svg xmlns="http://www.w3.org/2000/svg" viewBox="0 0 72.56 72.59"><defs><style>.cls-1{fill:#727171;}.cls-2{fill:#b5b5b6;}.cls-3{fill:#efefef;}.cls-4{fill:#3e3a39;}</style></defs><g id="图层_2" data-name="图层 2"><g id="图层_1-2" data-name="图层 1"><path class="cls-1" d="M0,72.59H15.8c0-.29,0-.58,0-.87a56.06,56.06,0,0,1,1.35-12.3l-11.4-2.6s-6.5,1.38-1.9,8.87C3.83,65.69-.43,68.59,0,72.59Z"/><path class="cls-2" d="M15.77,72.59c0-.29,0-.58,0-.87a56.72,56.72,0,0,1,.81-9.55l-8-1.35s-2.93-.3-3.5,2.35a4.28,4.28,0,0,0,1.73,4.27A4.47,4.47,0,0,0,3,72.09c0,.18,0,.34,0,.5Z"/><path class="cls-3" d="M15.76,72.59c0-.16,0-.33,0-.49,0-1.6.07-3.19.2-4.75H10.17s-4.39,1.3-.35,5.24Z"/><path class="cls-1" d="M72.56,0C68.76-.16,66,3.83,66,3.83c-7.49-4.6-8.86,1.91-8.86,1.91L59.72,16.9a56.47,56.47,0,0,1,12.21-1.34l.63,0Z"/><path class="cls-2" d="M72.56,3.08h-.12a4.46,4.46,0,0,0-4.65,3.77,4.28,4.28,0,0,0-4.27-1.73c-2.65.57-2.35,3.51-2.35,3.51l1.31,7.73a56.58,56.58,0,0,1,9.45-.8l.63,0Z"/><path class="cls-3" d="M72.56,9.85c-3.94-4-5.24.35-5.24.35v5.55c1.52-.12,3.06-.19,4.61-.19l.63,0Z"/><path class="cls-1" d="M31,33.29,21.74,24.7s-6.32-2.06-6.08,6.73c0,0-10.47.78-6.18,10.84,0,0-7.73,3.66-2.63,8.49l11.54,4A56.06,56.06,0,0,1,31,33.29Z"/><path class="cls-1" d="M33.78,30.52A56,56,0,0,1,55.39,18L51.75,6.2S47.3,1.25,43.11,9c0,0-9.45-4.55-10.77,6.3,0,0-8.52-.7-6.53,6Z"/><path class="cls-2" d="M29.16,35.33l-6.91-5.72s-2.39-1.73-4.21.28a4.3,4.3,0,0,0-.64,4.57,4.45,4.45,0,0,0-5.59,2.13,4.86,4.86,0,0,0,.89,6.14c0,.13-4.45,1.53-3.71,4.27a3.87,3.87,0,0,0,1.93,2.29l8.29,3.05A56.33,56.33,0,0,1,29.16,35.33Z"/><path class="cls-2" d="M35.69,28.83a55.88,55.88,0,0,1,17.09-9.91l-3.06-8.21S48.52,8,45.94,8.84a4.29,4.29,0,0,0-2.83,3.64,4.48,4.48,0,0,0-5.92-1,4.84,4.84,0,0,0-2.29,5.76c0,.14-4.62-.9-5.35,1.84a3.87,3.87,0,0,0,.53,2.95Z"/><path class="cls-3" d="M26.27,39l-5.73-3.31s-4.53-1.09-2.9,4.49c0,0-5.34,1-2.36,4.59L21,48.09A56.44,56.44,0,0,1,26.27,39Z"/><path class="cls-3" d="M39.33,26a56.53,56.53,0,0,1,9.08-5.27l-3.22-5.58s-3.37-3.21-4.75,2.44c0,0-5.16-1.76-4.35,2.8Z"/><path class="cls-4" d="M58.3,17.24l-4-14.86-.81.21,4,14.85Z"/><path class="cls-4" d="M17.94,56.58,2.09,52.34l-.22.82,15.86,4.23Z"/><path class="cls-4" d="M32.9,31.58,21.29,20l-.6.6L32.3,32.17Z"/></g></g></svg>