<svg xmlns="http://www.w3.org/2000/svg" viewBox="0 0 80.63 80.63"><defs><style>.cls-1{fill:#595757;}.cls-2{fill:#9fa0a0;}.cls-3{fill:#f7f8f8;}</style></defs><g id="图层_2" data-name="图层 2"><g id="图层_1-2" data-name="图层 1"><polygon class="cls-1" points="0 60.26 0 80.63 80.63 0 60.26 0 0 60.26"/><polygon class="cls-2" points="0 62.45 0 80.63 80.63 0 62.45 0 0 62.45"/><path class="cls-3" d="M17.67,48.79a6.6,6.6,0,0,0-4,2.73c-1.5,2.3.83,5.55-.71,6.29S11.1,54,9.14,54.76s1.11,5.89-.2,6.74-2-3.1-3.52-1.88,1.62,4.75.76,6-3.52.12-4.37,1.88,0,6.39,3.15,5.37,8.67-7.42,11-12,3.22-9.8,2.82-13A31.13,31.13,0,0,1,13.86,61.7C9.48,68,4.79,72.13,3.83,71.17s-1.06-3,0-3S7,67.67,7.66,66.19s-1.45-3.44-.88-4,1.42,2.05,3,.91-.26-5.31.65-5.71,1,3.21,3.36,2,1-4.83,1-6.19A5.94,5.94,0,0,1,17.67,48.79Z"/><path class="cls-3" d="M7.31,56.74A.91.91,0,1,1,6,58a.89.89,0,0,1,0-1.28A.91.91,0,0,1,7.31,56.74Z"/><path class="cls-3" d="M21.09,54.83a.9.9,0,1,1-1.27,0A.89.89,0,0,1,21.09,54.83Z"/><path class="cls-3" d="M2.38,73.36A.91.91,0,0,1,1.1,74.64a.91.91,0,1,1,1.28-1.28Z"/><path class="cls-3" d="M40.87,25.6a6.55,6.55,0,0,0-4,2.73c-1.51,2.3.82,5.54-.71,6.28s-1.82-3.81-3.78-3,1.11,5.88-.2,6.73-2-3.09-3.53-1.87,1.62,4.74.77,6-3.52.12-4.38,1.88,0,6.4,3.16,5.38,8.67-7.43,11-12,3.21-9.81,2.81-13A31.16,31.16,0,0,1,37.06,38.5C32.68,44.81,28,48.94,27,48s-1.05-3,0-3,3.13-.46,3.81-1.94-1.45-3.43-.88-4,1.42,2.05,2.95.92-.25-5.32.66-5.72,1,3.21,3.35,2,1-4.83,1-6.2A5.89,5.89,0,0,1,40.87,25.6Z"/><path class="cls-3" d="M30.5,33.54a.89.89,0,0,1,0,1.28.91.91,0,1,1,0-1.28Z"/><path class="cls-3" d="M44.29,31.64a.91.91,0,1,1-1.28,0A.89.89,0,0,1,44.29,31.64Z"/><path class="cls-3" d="M25.57,50.16a.89.89,0,0,1,0,1.28.88.88,0,0,1-1.27,0,.9.9,0,0,1,1.27-1.28Z"/><path class="cls-3" d="M64.33,2.13a6.6,6.6,0,0,0-4,2.73c-1.5,2.3.83,5.54-.71,6.28s-1.82-3.81-3.78-3,1.11,5.88-.2,6.74-2-3.1-3.52-1.88,1.62,4.75.77,6-3.53.11-4.38,1.88,0,6.39,3.15,5.37,8.67-7.42,11-12,3.21-9.81,2.81-13A31.13,31.13,0,0,1,60.52,15c-4.38,6.31-9.07,10.43-10,9.46s-1.06-3,0-3,3.12-.45,3.8-1.93-1.44-3.44-.88-4,1.43,2.05,3,.91-.26-5.32.65-5.72,1,3.22,3.36,2,1-4.83,1-6.2A5.89,5.89,0,0,1,64.33,2.13Z"/><path class="cls-3" d="M54,10.08a.91.91,0,1,1-1.28,0A.89.89,0,0,1,54,10.08Z"/><path class="cls-3" d="M67.76,8.17a.91.91,0,0,1-1.28,1.28.9.9,0,0,1,0-1.28A.91.91,0,0,1,67.76,8.17Z"/><path class="cls-3" d="M49,26.7a.91.91,0,1,1-1.28,0A.89.89,0,0,1,49,26.7Z"/></g></g></svg>