<svg xmlns="http://www.w3.org/2000/svg" viewBox="0 0 62.82 63.03"><defs><style>.cls-1{fill:#727171;}.cls-2{fill:#9fa0a0;}.cls-3{fill:#efefef;}</style></defs><g id="图层_2" data-name="图层 2"><g id="图层_1-2" data-name="图层 1"><path class="cls-1" d="M15.1,31.28a16.57,16.57,0,0,0-1.69-.12h-.48S7.2,40.85,15.68,52l.72-.23,2-.63A21.94,21.94,0,0,1,15.1,31.28Z"/><path class="cls-2" d="M20.14,35.87s.63-2.85-3-4.12a10.74,10.74,0,0,0-2.08-.47,21.94,21.94,0,0,0,3.26,19.86l2.3-.73,1.58-.51S17.39,43.21,20.14,35.87Z"/><path class="cls-2" d="M44.43,63h0l-1.37-3.58L39.17,46.36S33,43,29.94,47.27c0,0-6.69-4.4-10.19,2.42,0,0-9.75-.31-11.47,6.51,0,0-8.28,0-8.28,6.83H44.43Z"/><path class="cls-1" d="M47.16,63h0L47,62.87,38.82,48.93s-5.66-2.82-8.42.76c0,0-6.1-3.71-9.29,2.06,0,0-8.89-.27-10.46,5.51,0,0-7.55,0-7.55,5.77H47.16Z"/><path class="cls-3" d="M41.05,55s-3.33-1.6-5,.44c0,0-3.59-2.11-5.47,1.16,0,0-5.23-.15-6.15,3.13,0,0-4.45,0-4.45,3.28H47.16Z"/><path class="cls-1" d="M30.58,13.5c0,.16,0,.32,0,.48,0,.61.06,1.18.12,1.69a21.88,21.88,0,0,1,19.86,3.26l.63-2,.23-.71C40.28,7.77,30.58,13.5,30.58,13.5Z"/><path class="cls-2" d="M30.71,15.67a10.92,10.92,0,0,0,.47,2.08c1.28,3.59,4.12,3,4.12,3,7.35-2.75,14,2.1,14,2.1l.51-1.58.73-2.3A21.88,21.88,0,0,0,30.71,15.67Z"/><path class="cls-2" d="M62.82,0C56,0,56,8.28,56,8.28,49.17,10,49.48,19.74,49.48,19.74c-6.81,3.51-2.42,10.2-2.42,10.2-4.24,3-.91,9.23-.91,9.23l13.11,3.9,3.56,1.36Z"/><path class="cls-2" d="M26,9.34s-1.05-5.72-6.45-3.87c0,0-4.78-5.1-9.28-2.34,0,0-4.2-4.19-7.83-.56S3,10.4,3,10.4C.2,14.91,5.3,19.68,5.3,19.68c-1.86,5.41,3.87,6.46,3.87,6.46-.73,3.79,4.2,5.16,4.2,5.16L28.86,29l2.27-15.49S29.76,8.62,26,9.34Z"/><path class="cls-1" d="M24.91,10.87S23.79,5.81,19.1,7.26c0,0-4.36-4.65-8.23-2.37,0,0-3.83-3.82-6.9-.75s.75,6.9.75,6.9c-2.28,3.87,2.37,8.24,2.37,8.24-1.46,4.68,3.61,5.8,3.61,5.8-.51,3.31,3.86,4.67,3.86,4.67L28.1,28.28l1.48-13.55S28.21,10.36,24.91,10.87Z"/><path class="cls-3" d="M24.72,16.83s-.7-2.95-3.4-2.15c0,0-2.56-2.74-4.78-1.46,0,0-2.26-2.24-4-.5s.51,4,.51,4c-1.28,2.22,1.45,4.79,1.45,4.79-.79,2.69,2.15,3.39,2.15,3.39-.26,1.91,2.28,2.75,2.28,2.75l7.82-.72.71-7.81S26.63,16.56,24.72,16.83Z"/><path class="cls-2" d="M37.34,33.18c3.79-4.86-2.57-7.78-2.57-7.78,2.8-6.69-3.4-10-6.44-11.13a11.24,11.24,0,0,0-1.64,2,12.55,12.55,0,0,0-1.31,9.29,12.55,12.55,0,0,0-9.29,1.31,10.44,10.44,0,0,0-2,1.64c1.17,3,4.44,9.24,11.13,6.44,0,0,2.93,6.36,7.78,2.57,0,0,2.73,2.54,4.89.52S37.34,33.18,37.34,33.18Z"/><path class="cls-3" d="M37.34,24.47c4.5-9.21-7-11.78-7-11.78l-.44.29a12.26,12.26,0,0,0-1.58,1.29c3,1.16,9.24,4.44,6.44,11.13,0,0,6.36,2.92,2.57,7.78,0,0,2.54,2.73.52,4.89S33,37.55,33,37.55C28.12,41.34,25.19,35,25.19,35c-6.69,2.8-10-3.4-11.13-6.44a12.26,12.26,0,0,0-1.29,1.58l-.29.44s2.57,11.49,11.78,7c0,0,3.07,7.28,8.92,2.22,0,0,3.31,2.4,6-.33s.33-6,.33-6C44.63,27.54,37.34,24.47,37.34,24.47Z"/><path class="cls-1" d="M62.82,3.1c-5.76,0-5.77,7.55-5.77,7.55-5.77,1.57-5.51,10.46-5.51,10.46-5.77,3.19-2,9.29-2,9.29-3.59,2.76-.77,8.43-.77,8.43l14,8.21.15.12Z"/><path class="cls-3" d="M59.54,24.47c-3.27.92-3.13,6.15-3.13,6.15-3.27,1.88-1.16,5.47-1.16,5.47-2,1.63-.44,5-.44,5l8,6.11V20C59.55,20,59.54,24.47,59.54,24.47Z"/></g></g></svg>