<svg xmlns="http://www.w3.org/2000/svg" viewBox="0 0 63.07 63.04"><defs><style>.cls-1{fill:#727171;}.cls-2{fill:#9fa0a0;}.cls-3{fill:#3e3a39;}.cls-4{fill:#efefef;}</style></defs><g id="图层_2" data-name="图层 2"><g id="图层_1-2" data-name="图层 1"><path class="cls-1" d="M33.69,63l0-.2s1.43-5.19-3-8.13L10.4,44S4.76,46.69,5.86,54.54c0,0-5.86,2.55-5.86,8.3,0,.07,0,.13,0,.2Z"/><path class="cls-2" d="M28,63c0-.12,0-.2,0-.2a5,5,0,0,0-2-5.35l-13.34-7s-3.72,1.75-3,6.92c0,0-3.86,1.68-3.86,5.47,0,.07,0,.13,0,.2Z"/><path class="cls-3" d="M22.57,63c0-.12,0-.2,0-.2a2.55,2.55,0,0,0-1-2.72l-6.79-3.59a3.23,3.23,0,0,0-1.52,3.53,3.31,3.31,0,0,0-2,2.78,1.38,1.38,0,0,0,0,.2Z"/><path class="cls-1" d="M63.07,0c-5.76,0-8.3,5.87-8.3,5.87C46.91,4.76,44.26,10.4,44.26,10.4L54.94,30.65c2.94,4.41,8.11,3,8.13,3Z"/><path class="cls-2" d="M63.07,5.78c-3.79,0-5.47,3.86-5.47,3.86-5.17-.73-6.93,3-6.93,3l7,13.34a5.06,5.06,0,0,0,5.36,2Z"/><path class="cls-3" d="M63.07,11.25a3.33,3.33,0,0,0-2.78,2,3.23,3.23,0,0,0-3.53,1.52l3.58,6.79a2.57,2.57,0,0,0,2.73,1Z"/><path class="cls-1" d="M46.55,34.37,39.79,12.5s-5.86-2.11-10.64,4.23c0,0-5.94-2.35-10,1.72s-1.72,10-1.72,10c-6.34,4.78-4.23,10.65-4.23,10.65l21.87,6.76c5.2,1,7.86-3.64,7.86-3.64S47.6,39.58,46.55,34.37Z"/><path class="cls-2" d="M41.28,33l-4.45-14.4s-3.87-1.4-7,2.78c0,0-3.92-1.55-6.6,1.13s-1.13,6.6-1.13,6.6c-4.18,3.14-2.79,7-2.79,7L33.71,40.6a5,5,0,0,0,5.18-2.4A5,5,0,0,0,41.28,33Z"/><path class="cls-3" d="M36.29,31.75,34,24.41a3.22,3.22,0,0,0-3.57,1.42,3.29,3.29,0,0,0-3.35.58,3.29,3.29,0,0,0-.58,3.35,3.22,3.22,0,0,0-1.42,3.57l7.34,2.27a2.56,2.56,0,0,0,2.63-1.22A2.56,2.56,0,0,0,36.29,31.75Z"/><path class="cls-1" d="M40.5,10.45c-6.73,2.88-15.56,15.84-6.9,23.08s18.62,1.88,18.62,1.88S62.74,31.2,62.74,19.92,47,7.13,40.5,10.45Z"/><path class="cls-3" d="M42.15,13.19c-5.66,2.42-13.07,13.31-5.8,19.4S52,34.17,52,34.17s8.84-3.54,8.84-13S47.64,10.4,42.15,13.19Z"/><path class="cls-1" d="M43.37,27.08a7.54,7.54,0,0,0,.6,8.41l.89.09a15.38,15.38,0,0,0,11.45-4.39c.26-.26.52-.54.77-.84C54.65,22.55,46.26,22.24,43.37,27.08Z"/><path class="cls-2" d="M60,21.86a1.92,1.92,0,0,0-1.47.57c-.61-5.44-4.32-3.31-4.32-3.31a3.83,3.83,0,0,0-5.56-1.66s-1.94-3.25-5-1.67a3.86,3.86,0,0,0-2.07,4.57c-4.49.41-3.24,4.65-3.24,4.65-3.07,2-.5,5.06-.5,5.06-1.14-.16-1.44.39-1.41,1.07a7.62,7.62,0,0,0,.87,1,8.09,8.09,0,0,0,.6.56A12.53,12.53,0,0,0,39.67,34,11.7,11.7,0,0,0,44,35.49a7.54,7.54,0,0,1-.6-8.41c2.89-4.84,11.28-4.53,13.71,3.27a11.89,11.89,0,0,0,2.33-4.17A12.62,12.62,0,0,0,60,22.51s0-.06,0-.09C60,22.22,60,22,60,21.86Z"/><path class="cls-4" d="M54.82,30A2.39,2.39,0,0,0,52,28.74s-1.47-3.86-4.23-2.4a3.12,3.12,0,0,0-1.49,4.15s-2.29,2.28-.5,4.06c.83.83,2.22.8,3.49.54a11.18,11.18,0,0,0,2.57-.84l0,0,.14-.06S55.65,31.81,54.82,30Z"/><path class="cls-3" d="M50.89,30.37c-2,0-3.7,1.55-3.15,3.38s4.1.5,4.1.5C54.77,32.64,52.94,30.37,50.89,30.37Z"/><path class="cls-1" d="M10.57,41.79C7.84,48.59,10.77,64,22,63s14.5-11.85,14.5-11.85S41,40.75,33,32.77,12.84,34.83,10.57,41.79Z"/><path class="cls-3" d="M32.51,35c-6.7-6.71-16.93,1.73-18.84,7.59-2.29,5.71.17,18.65,9.62,17.81s12.18-10,12.18-10S39.22,41.69,32.51,35Z"/><path class="cls-1" d="M36.37,44.14c-7.24-3.79-13.39,1.92-12,7.38a7.54,7.54,0,0,0,6.37,5.53c.24-.18.47-.37.7-.57a14.51,14.51,0,0,0,4-6,14.34,14.34,0,0,0,.94-5.15C36.41,44.91,36.4,44.53,36.37,44.14Z"/><path class="cls-2" d="M36.37,44.14a12.09,12.09,0,0,0-1.31-4.59,12.52,12.52,0,0,0-2.19-3l-.07-.07c-.13-.13-.27-.25-.41-.37a2,2,0,0,0-.64,1.45c-4.27-3.42-5.4.7-5.4.7A3.83,3.83,0,0,0,21.25,41s-3.67-.92-4.69,2.35a3.84,3.84,0,0,0,1.76,4.69c-2.88,3.46,1,5.58,1,5.58-.76,3.58,3.23,3.93,3.23,3.93-.92.69-.73,1.29-.23,1.75a7.17,7.17,0,0,0,1.34.13,7.63,7.63,0,0,0,.82,0A13.09,13.09,0,0,0,26.64,59a11.83,11.83,0,0,0,4.09-2,7.54,7.54,0,0,1-6.37-5.53C23,46.06,29.13,40.35,36.37,44.14Z"/><path class="cls-4" d="M34.51,45.48a2.38,2.38,0,0,0-2.87,1.12s-3.78-1.69-4.7,1.29a3.13,3.13,0,0,0,1.88,4s0,3.22,2.52,3.22c1.18,0,2.15-1,2.85-2.09a11.09,11.09,0,0,0,1.22-2.4v0l0-.15S36.38,46.18,34.51,45.48Z"/><path class="cls-3" d="M32,48.53c-1.45,1.45-1.53,3.72.16,4.62s3.24-2.54,3.24-2.54C36.35,47.4,33.46,47.09,32,48.53Z"/></g></g></svg>