<svg xmlns="http://www.w3.org/2000/svg" viewBox="0 0 62.73 62.42"><defs><style>.cls-1{fill:#f7f8f8;}.cls-2{fill:#9fa0a0;}.cls-3{fill:#efefef;}.cls-4{fill:#595757;}</style></defs><g id="图层_2" data-name="图层 2"><g id="图层_1-2" data-name="图层 1"><path class="cls-1" d="M7.08,56.3C3.73,61.4,0,62.42,0,62.42H24.81C20.16,51.4,10.44,51.21,7.08,56.3Z"/><path class="cls-2" d="M8.22,56.7C5.08,61.46,1.6,62.42,1.6,62.42H24.81C20.46,52.12,11.36,51.93,8.22,56.7Z"/><path class="cls-1" d="M62.73,0c-.39,1-1.83,4-6,6.73-5.07,3.35-4.89,13,6,17.68Z"/><path class="cls-2" d="M62.73,1.6a14.24,14.24,0,0,1-5.6,6.28C52.38,11,52.55,20,62.73,24.41Z"/><path class="cls-1" d="M30.21,21.25c-6,1.23-9.33-.68-9.33-.68s1.91,3.36.68,9.33,5.79,12.71,16.86,8.22C42.92,27,36.19,20,30.21,21.25Z"/><path class="cls-2" d="M30.74,22.34C25.15,23.48,22,21.7,22,21.7s1.78,3.14.64,8.73,5.41,11.9,15.77,7.69C42.63,27.75,36.33,21.19,30.74,22.34Z"/><path class="cls-3" d="M50.88,10.06c-6.52,0-11.33-5.67-11.33-5.67s.25,5.3-4.29,13.05c-5.28,9-.84,16.23,2,19.52-3.29-2.85-10.5-7.29-19.52-2-7.75,4.55-13,4.3-13,4.3s5.67,4.8,5.67,11.33,5.32,11.84,5.32,11.84h47v-47S57.41,10.06,50.88,10.06Z"/><path class="cls-4" d="M62.73,62.42V17.5s-5.08-5.08-11.31-5.08S40.6,7,40.6,7s.24,5.06-4.1,12.46c-5.05,8.61-.8,15.5,1.92,18.65-3.14-2.73-10-7-18.65-1.93-7.4,4.34-12.46,4.1-12.46,4.1s5.41,4.59,5.41,10.82,5.09,11.31,5.09,11.31H62.73"/><path class="cls-1" d="M57.58,40.45s-.94-22.06-10.9-18.72,4.38,21.55,4.38,21.55l1.63-.71v0L56.47,41v0Z"/><path class="cls-1" d="M43,52l.55-1.25S25.39,36.41,22,46.37s18.71,10.9,18.71,10.9l.37-.84h0l.12-.27h0l1.64-3.78h0L43,52Z"/></g></g></svg>