<?xml version="1.0" standalone="no"?><!DOCTYPE svg PUBLIC "-//W3C//DTD SVG 1.1//EN" "http://www.w3.org/Graphics/SVG/1.1/DTD/svg11.dtd"><svg t="1590829519918" class="icon" viewBox="0 0 1024 1024" version="1.1" xmlns="http://www.w3.org/2000/svg" p-id="6427" xmlns:xlink="http://www.w3.org/1999/xlink" width="200" height="200"><defs><style type="text/css"></style></defs><path d="M512 512m-512 0a512 512 0 1 0 1024 0 512 512 0 1 0-1024 0Z" fill="#E5ECF7" p-id="6428"></path><path d="M353.5232 376.6016a159.0016 158.4768 90 1 0 316.9536 0 159.0016 158.4768 90 1 0-316.9536 0Z" fill="#A6C0E9" p-id="6429"></path><path d="M256 596.7616m85.6192 0l340.7616 0q85.6192 0 85.6192 85.6192l0 0q0 85.6192-85.6192 85.6192l-340.7616 0q-85.6192 0-85.6192-85.6192l0 0q0-85.6192 85.6192-85.6192Z" fill="#A6C0E9" p-id="6430"></path></svg>