<?xml version="1.0" standalone="no"?><!DOCTYPE svg PUBLIC "-//W3C//DTD SVG 1.1//EN" "http://www.w3.org/Graphics/SVG/1.1/DTD/svg11.dtd"><svg t="1590832051032" class="icon" viewBox="0 0 1024 1024" version="1.1" xmlns="http://www.w3.org/2000/svg" p-id="5761" xmlns:xlink="http://www.w3.org/1999/xlink" width="200" height="200"><defs><style type="text/css"></style></defs><path d="M817.28 128H206.634667A78.72 78.72 0 0 0 128 206.634667v610.730666C128 860.757333 163.242667 896 206.634667 896h610.730666A78.72 78.72 0 0 0 896 817.365333V206.592A78.72 78.72 0 0 0 817.28 128z m-69.546667 218.197333l-1.621333 0.853334-0.213333 1.877333c-16.725333 115.498667-117.333333 202.666667-233.941334 202.666667-116.608 0-217.173333-87.168-233.941333-202.666667l-0.256-1.834667-1.621333-0.853333a36.394667 36.394667 0 0 1-18.517334-31.317333 36.778667 36.778667 0 0 1 73.514667 0c0 10.666667-4.821333 20.608-13.653333 27.946666l-1.749334 1.322667 0.384 2.176a197.504 197.504 0 0 0 195.84 167.210667 197.546667 197.546667 0 0 0 195.84-167.210667l0.426667-2.133333-1.706667-1.322667a35.925333 35.925333 0 0 1-13.653333-27.946667 36.736 36.736 0 0 1 73.514667 0 36.48 36.48 0 0 1-18.645334 31.232z" p-id="5762"></path></svg>