<?xml version="1.0" standalone="no"?><!DOCTYPE svg PUBLIC "-//W3C//DTD SVG 1.1//EN" "http://www.w3.org/Graphics/SVG/1.1/DTD/svg11.dtd"><svg t="1590832035749" class="icon" viewBox="0 0 1024 1024" version="1.1" xmlns="http://www.w3.org/2000/svg" p-id="5023" xmlns:xlink="http://www.w3.org/1999/xlink" width="200" height="200"><defs><style type="text/css"></style></defs><path d="M798.72 61.44 225.28 61.44c-90.486329 0-163.84 73.353671-163.84 163.84l0 296.96c0 243.181947 197.138053 440.32 440.32 440.32l20.48 0c243.181947 0 440.32-197.138053 440.32-440.32L962.56 225.28C962.56 134.793671 889.206329 61.44 798.72 61.44zM503.99934 689.971151l-0.000982-0.783536c-14.019638-6.209336-217.87915-99.123396-217.87915-251.677045 0-90.837814 66.197953-136.567557 127.357206-136.561662 37.983302 0.003684 74.030607 17.648219 91.047576 53.083924 17.161149-35.022568 53.052239-52.455622 90.878588-52.455622 61.238344 0 127.534545 45.714268 127.534545 136.500256C722.937123 595.990352 503.99934 689.971151 503.99934 689.971151z" p-id="5024"></path></svg>